<svg version="1.1" id="PASTLayer_1" xmlns="http://www.w3.org/2000/svg" xmlns:xlink="http://www.w3.org/1999/xlink" x="0px" y="0px" viewBox="0 0 671.5 231.4" style="enable-background:new 0 0 671.5 231.4;" xml:space="preserve" width="671.5"  height="231.4" >
<style type="text/css" fill="#949494">
	.past-0{fill:#0E2B4C;}
	.past-0{fill:#FFFFFF;}
</style>
<g fill="#949494">
	<defs>
		<rect id="PASTSVGID_1_" y="0" width="106.43" height="32.09"></rect>
	<rect id="PASTSVGID_1_" y="0" width="106.43" height="32.09"></rect></defs>
	<clipPath id="PASTSVGID_2_" fill="#949494">
		<use xlink:href="#PASTSVGID_1_" style="overflow:visible;"></use>
	</clipPath>
	<path class="past-0" d="M0,0v231.4h231.4V0H0z M78.3,142.9h-7.4c0-2.6,0-4.4,0-5.4s0-1.4,0-1.5h-0.1l-0.4,0.6c-0.7,0.8-1.6,1.7-2.8,2.6
		c-1.1,0.9-2.4,1.8-4,2.5c-1.5,0.8-3.2,1.3-5.1,1.8c-1.9,0.5-3.9,0.8-6,0.8c-3.8,0-7.4-0.7-10.8-2c-3.4-1.4-6.3-3.3-8.8-5.7
		c-2.5-2.5-4.5-5.4-6-8.9c-1.5-3.4-2.1-7.2-2.1-11.3c0-4.1,0.8-7.8,2.2-11.3c1.5-3.4,3.4-6.4,6-8.9c2.5-2.5,5.5-4.4,8.9-5.7
		c3.4-1.4,7-2.1,10.8-2.1c5.4,0.1,10.3,1.4,14.5,3.9c4.2,2.5,7.5,5.9,9.9,10.1l-8.7,2.3c-1.6-2.5-3.8-4.5-6.7-6
		c-2.8-1.5-5.8-2.1-9-2.1c-2.8,0-5.3,0.5-7.7,1.4c-2.4,0.9-4.4,2.2-6,4c-1.7,1.8-3,3.8-3.9,6.2c-0.9,2.4-1.4,5-1.4,7.9
		c0,3,0.5,5.7,1.5,8c1,2.4,2.4,4.4,4.1,6.1c1.8,1.7,3.8,3,6.2,3.9c2.4,0.9,5,1.4,7.7,1.4c2.4,0,4.7-0.3,6.7-0.9
		c2-0.6,3.7-1.5,5.2-2.5c1.5-1,2.7-2.1,3.7-3.2c1-1.1,1.7-2.3,2.1-3.4v-4.5H55.4v-7h22.9V142.9z M144,142.8h-8.3v-20.4
		c0-2.5,0-4.8,0.1-7.1c0.1-2.3,0.2-4.3,0.2-6c0.1-1.8,0.1-3.1,0.2-4.2l0.1-1.6h-0.1l-0.5,0.9c-0.4,0.6-0.8,1.4-1.3,2.2
		c-0.5,0.8-1,1.8-1.5,2.7l-1.3,2.3l-10.4,18h-4.4l-10.4-18c-0.4-0.6-0.8-1.4-1.4-2.3c-0.5-0.9-1.1-1.8-1.6-2.7
		c-0.5-0.8-1-1.6-1.4-2.2l-0.5-0.9h-0.1l0.1,1.5c0.1,1.1,0,2.5,0,4.2c0,1.8,0.1,3.8,0.2,6.1c0.1,2.3,0.1,4.7,0.1,7.1v20.4h-8.3V89.2
		h8l12.2,20.5c1.1,1.8,2.1,3.4,2.8,4.6c0.7,1.2,1.2,2.1,1.6,2.8c0.4,0.7,0.7,1.1,0.8,1.4l0.2,0.4h0.1l0.2-0.4
		c0.2-0.2,0.4-0.7,0.8-1.4c0.4-0.7,0.9-1.6,1.6-2.8c0.7-1.2,1.6-2.8,2.7-4.6l12.2-20.5h8L144,142.8z M204.7,142.8h-8.5v-23.5H170
		v23.5h-8.5V89.2h8.5v22.2h26.2V89.2h8.5V142.8z" fill="#949494"></path>
	<g fill="#949494">
		<path class="past-0" d="M267,106.6V52h22.8c2.4,0,4.6,0.5,6.6,1.5s3.7,2.3,5.2,4c1.5,1.7,2.6,3.5,3.5,5.6c0.8,2.1,1.2,4.2,1.2,6.4
			c0,3-0.7,5.8-2,8.5c-1.3,2.7-3.2,4.9-5.6,6.5c-2.4,1.7-5.2,2.5-8.5,2.5h-16.3v19.6H267z M273.9,80.9h15.9c1.9,0,3.6-0.5,5-1.5
			c1.4-1,2.5-2.4,3.3-4.2c0.8-1.7,1.2-3.6,1.2-5.7c0-2.2-0.5-4.1-1.4-5.8c-0.9-1.7-2.1-3.1-3.6-4c-1.5-1-3.1-1.5-4.9-1.5h-15.5V80.9z
			" fill="#949494"></path>
		<path class="past-0" d="M331.9,52h5.9l22.3,54.7h-7.4l-6.1-16H323l-6.2,16h-7.4L331.9,52z M344.5,85.2L334.8,60l-9.7,25.3H344.5z" fill="#949494"></path>
		<path class="past-0" d="M403,63.4c-0.6-0.7-1.4-1.4-2.5-2.1c-1-0.7-2.2-1.3-3.5-1.8s-2.7-1-4.2-1.3c-1.5-0.3-3.1-0.5-4.7-0.5
			c-4.2,0-7.3,0.8-9.3,2.4c-2,1.6-3,3.8-3,6.5c0,1.9,0.5,3.5,1.5,4.6c1,1.1,2.6,2,4.7,2.8c2.1,0.7,4.8,1.5,8.1,2.2
			c3.8,0.8,7.1,1.8,9.9,3c2.8,1.2,4.9,2.8,6.4,4.7c1.5,2,2.2,4.6,2.2,7.9c0,2.6-0.5,4.9-1.5,6.8c-1,1.9-2.4,3.5-4.2,4.8
			c-1.8,1.3-3.9,2.2-6.3,2.8c-2.4,0.6-5,0.9-7.9,0.9c-2.8,0-5.5-0.3-8.1-0.9c-2.6-0.6-5.1-1.4-7.5-2.6c-2.4-1.1-4.6-2.5-6.6-4.2
			l3.3-5.9c0.8,0.9,1.9,1.7,3.2,2.6c1.3,0.8,2.8,1.6,4.5,2.3c1.7,0.7,3.5,1.3,5.4,1.7c2,0.4,4,0.7,6,0.7c3.9,0,6.9-0.7,9.1-2.1
			c2.2-1.4,3.2-3.5,3.2-6.2c0-2-0.6-3.7-1.8-4.9c-1.2-1.2-3-2.3-5.4-3.1c-2.4-0.8-5.2-1.6-8.6-2.5c-3.7-0.9-6.8-1.9-9.3-3
			c-2.5-1.1-4.4-2.5-5.7-4.3c-1.3-1.8-1.9-4.1-1.9-7c0-3.5,0.8-6.4,2.5-8.8c1.7-2.4,4-4.2,7-5.5c3-1.2,6.3-1.8,10.1-1.8
			c2.5,0,4.8,0.3,6.9,0.8c2.1,0.5,4.1,1.2,6,2.2c1.8,0.9,3.5,2,5.1,3.3L403,63.4z" fill="#949494"></path>
		<path class="past-0" d="M461.4,58.1h-18.9v48.5h-6.9V58.1h-18.9V52h44.7V58.1z" fill="#949494"></path>
		<path class="past-0" d="M267,187.6V133h22.8c2.4,0,4.6,0.5,6.6,1.5s3.7,2.3,5.2,4c1.5,1.7,2.6,3.5,3.5,5.6c0.8,2.1,1.2,4.2,1.2,6.4
			c0,3-0.7,5.8-2,8.5s-3.2,4.9-5.6,6.5c-2.4,1.7-5.2,2.5-8.5,2.5h-16.3v19.6H267z M273.9,161.9h15.9c1.9,0,3.6-0.5,5-1.5
			c1.4-1,2.5-2.4,3.3-4.2c0.8-1.7,1.2-3.6,1.2-5.7c0-2.2-0.5-4.1-1.4-5.8c-0.9-1.7-2.1-3.1-3.6-4c-1.5-1-3.1-1.5-4.9-1.5h-15.5V161.9
			z" fill="#949494"></path>
		<path class="past-0" d="M319.2,187.6V133h23.4c2.4,0,4.6,0.5,6.6,1.5s3.7,2.3,5.2,4c1.5,1.7,2.6,3.5,3.5,5.6c0.8,2.1,1.2,4.2,1.2,6.4
			c0,2.5-0.5,4.9-1.4,7.2c-1,2.3-2.3,4.2-4,5.8c-1.7,1.6-3.7,2.7-6,3.3l13.2,20.9h-7.9L340.6,168h-14.5v19.6H319.2z M326.1,161.9
			h16.6c1.9,0,3.6-0.5,5-1.6c1.4-1.1,2.5-2.5,3.3-4.2c0.8-1.7,1.2-3.6,1.2-5.6c0-2.1-0.5-3.9-1.4-5.7c-0.9-1.7-2.1-3.1-3.6-4.1
			c-1.5-1-3.1-1.5-4.9-1.5h-16.1V161.9z" fill="#949494"></path>
		<path class="past-0" d="M396.2,188c-3.8,0-7.3-0.8-10.5-2.3c-3.1-1.5-5.8-3.6-8.1-6.3c-2.3-2.6-4-5.6-5.3-8.9
			c-1.2-3.3-1.8-6.7-1.8-10.2c0-3.6,0.7-7.1,2-10.4c1.3-3.3,3.1-6.3,5.5-8.9c2.3-2.6,5.1-4.6,8.2-6.2c3.1-1.5,6.5-2.3,10.2-2.3
			c3.8,0,7.3,0.8,10.5,2.4c3.1,1.6,5.8,3.7,8.1,6.4c2.3,2.7,4,5.6,5.2,8.9s1.8,6.6,1.8,10.1c0,3.6-0.6,7.1-1.9,10.4
			c-1.3,3.3-3.1,6.3-5.4,8.9c-2.3,2.6-5.1,4.6-8.2,6.1C403.3,187.3,399.9,188,396.2,188z M377.5,160.3c0,2.8,0.4,5.5,1.3,8
			c0.9,2.6,2.2,4.9,3.8,6.9c1.6,2,3.6,3.6,5.9,4.8c2.3,1.2,4.9,1.8,7.7,1.8c2.9,0,5.5-0.6,7.9-1.8c2.3-1.2,4.3-2.9,5.9-4.9
			c1.6-2.1,2.8-4.4,3.7-6.9c0.8-2.6,1.3-5.2,1.3-7.8c0-2.8-0.5-5.4-1.3-8c-0.9-2.6-2.2-4.9-3.8-6.9c-1.7-2-3.6-3.6-5.9-4.8
			c-2.3-1.2-4.8-1.7-7.6-1.7c-2.9,0-5.5,0.6-7.9,1.8c-2.3,1.2-4.3,2.8-5.9,4.9c-1.6,2.1-2.9,4.4-3.7,6.9
			C377.9,155,377.5,157.6,377.5,160.3z" fill="#949494"></path>
		<path class="past-0" d="M430.2,179c1,0.7,2.3,1.3,4,1.9c1.7,0.6,3.8,0.9,6.1,0.9c2.4,0,4.4-0.4,5.9-1.2s2.7-2,3.5-3.6
			c0.8-1.6,1.4-3.6,1.7-6.1c0.3-2.5,0.5-5.4,0.5-8.8V133h6.9v27.6c0,4-0.2,7.7-0.6,11.1c-0.4,3.4-1.2,6.3-2.5,8.7
			c-1.2,2.5-3.1,4.4-5.5,5.7c-2.4,1.3-5.7,2-9.7,2c-2.6,0-4.8-0.3-6.8-0.8c-2-0.6-3.7-1.4-5.4-2.5L430.2,179z" fill="#949494"></path>
		<path class="past-0" d="M512.8,181.5v6.2h-37.1V133h36.4v6.2h-29.5v17.7h25.6v5.8h-25.6v18.9H512.8z" fill="#949494"></path>
		<path class="past-0" d="M521.9,159.8c0-3.3,0.6-6.6,1.7-9.8s2.8-6.1,5.1-8.8c2.2-2.6,5-4.7,8.2-6.3c3.2-1.6,6.9-2.3,11-2.3
			c4.9,0,9.1,1.1,12.6,3.3c3.5,2.2,6.1,5.1,7.8,8.6l-5.5,3.5c-1.1-2.3-2.5-4.1-4.1-5.5c-1.7-1.4-3.5-2.3-5.4-2.9
			c-1.9-0.6-3.8-0.8-5.7-0.8c-3,0-5.7,0.6-8,1.8c-2.3,1.2-4.3,2.9-5.9,4.9c-1.6,2.1-2.8,4.4-3.6,6.9s-1.2,5.1-1.2,7.7
			c0,2.8,0.5,5.5,1.4,8.2c0.9,2.6,2.3,4.9,4,6.9c1.7,2,3.7,3.6,6,4.8c2.3,1.2,4.8,1.8,7.5,1.8c1.9,0,3.8-0.3,5.9-1s3.9-1.7,5.6-3.1
			c1.7-1.4,3.1-3.2,4.2-5.5l5.8,3.2c-1.1,2.7-2.9,5-5.2,6.9c-2.4,1.9-5,3.3-7.9,4.3c-2.9,1-5.8,1.5-8.6,1.5c-3.7,0-7.2-0.8-10.3-2.4
			c-3.1-1.6-5.8-3.8-8.1-6.5c-2.3-2.7-4.1-5.7-5.3-9.1C522.5,166.7,521.9,163.3,521.9,159.8z" fill="#949494"></path>
		<path class="past-0" d="M621.6,139.1h-18.9v48.5h-6.9v-48.5h-18.9V133h44.7V139.1z" fill="#949494"></path>
		<path class="past-0" d="M665.8,144.4c-0.6-0.7-1.4-1.4-2.5-2.1c-1-0.7-2.2-1.3-3.5-1.8c-1.3-0.5-2.7-1-4.2-1.3
			c-1.5-0.3-3.1-0.5-4.7-0.5c-4.2,0-7.3,0.8-9.3,2.4c-2,1.6-3,3.8-3,6.5c0,1.9,0.5,3.5,1.5,4.6c1,1.1,2.6,2,4.7,2.8
			c2.1,0.7,4.8,1.5,8.1,2.2c3.8,0.8,7.1,1.8,9.9,3c2.8,1.2,4.9,2.8,6.4,4.7c1.5,2,2.2,4.6,2.2,7.9c0,2.6-0.5,4.9-1.5,6.8
			c-1,1.9-2.4,3.5-4.2,4.8c-1.8,1.3-3.9,2.2-6.3,2.8c-2.4,0.6-5,0.9-7.9,0.9c-2.8,0-5.5-0.3-8.1-0.9c-2.6-0.6-5.1-1.4-7.5-2.6
			c-2.4-1.1-4.6-2.5-6.6-4.2l3.3-5.9c0.8,0.9,1.9,1.7,3.2,2.6c1.3,0.8,2.8,1.6,4.5,2.3c1.7,0.7,3.5,1.3,5.4,1.7c2,0.4,4,0.7,6,0.7
			c3.9,0,6.9-0.7,9.1-2.1c2.2-1.4,3.2-3.5,3.2-6.2c0-2-0.6-3.7-1.8-4.9c-1.2-1.2-3-2.3-5.4-3.1c-2.4-0.8-5.2-1.6-8.6-2.5
			c-3.7-0.9-6.8-1.9-9.3-3c-2.5-1.1-4.4-2.5-5.7-4.3s-1.9-4.1-1.9-7c0-3.5,0.8-6.4,2.5-8.8c1.7-2.4,4-4.2,7-5.5
			c3-1.2,6.3-1.8,10.1-1.8c2.5,0,4.8,0.3,6.9,0.8c2.1,0.5,4.1,1.2,6,2.2c1.8,0.9,3.5,2,5.1,3.3L665.8,144.4z" fill="#949494"></path>
	</g>
</g>
</svg>