<svg xmlns="http://www.w3.org/2000/svg" xmlns:xlink="http://www.w3.org/1999/xlink" version="1.1" id="Layer_1" x="0px" y="0px" viewBox="0 0 153.6 61.8" style="enable-background:new 0 0 153.6 61.8;" xml:space="preserve" width="350"  height="166" >
<style type="text/css">
	.st0{fill:#21145F;}
	.st1{fill:#5D5D5D;}
	.st2{fill:#FFFFFF;}
	.st3{fill:#8D9EBC;}
</style>
<g>
	<polygon class="st0" points="53.9,16.4 58,16.4 58,39 69.6,39 69.6,42.6 53.9,42.6  "/>
	<path class="st0" d="M67.5,29.5c0-7.8,6-13.5,13.5-13.5c7.5,0,13.5,5.7,13.5,13.5c0,7.8-6,13.5-13.5,13.5   C73.6,43,67.5,37.3,67.5,29.5 M90.3,29.5c0-5.6-3.8-9.7-9.3-9.7c-5.4,0-9.3,4.2-9.3,9.7c0,5.6,3.8,9.7,9.3,9.7   C86.5,39.2,90.3,35.1,90.3,29.5"/>
	<polygon class="st0" points="96.3,16.4 112.6,16.4 112.6,20.1 100.4,20.1 100.4,28.3 111.6,28.3 111.6,32 100.4,32 100.4,42.6    96.3,42.6  "/>
	<polygon class="st0" points="122.1,20.1 114.4,20.1 114.4,16.4 134.1,16.4 134.1,20.1 126.3,20.1 126.3,42.6 122.1,42.6  "/>
	<path class="st0" d="M136.3,35.7c1.2,2.3,3.2,3.5,5.9,3.5c2.8,0,4.6-1.3,4.6-3.4c0-2.5-1.9-3.4-4.2-4.4l-1.8-0.8   c-3.9-1.7-6.5-3.6-6.5-7.7c0-4,3-6.8,7.5-6.8c3.6,0,6.1,1.3,7.7,4.1l-3.1,2c-1-1.7-2.4-2.5-4.5-2.5c-2.2,0-3.6,1.2-3.6,3   c0,2.1,1.3,2.8,4.2,4.1l1.8,0.8c4,1.8,6.6,3.7,6.6,8.1c0,4.8-3.7,7.2-8.7,7.2c-4.5,0-7.7-2.2-9.4-5.5L136.3,35.7z"/>
	<polygon class="st1" points="30.7,22.9 51.2,20 51.2,3.6 12.2,3.6 12.2,16.3  "/>
	<path class="st0" d="M35.9,27.1v13.2h-5.6V28.3l-18-4.9v19.2h39V23.4L35.9,27.1z M42.4,40.3h-5.6V27h5.6V40.3z M48.9,40.3h-5.6   V25.8h5.6V40.3z"/>
	<rect x="23" y="5.9" class="st2" width="1.8" height="21.2"/>
	<rect x="29.4" y="5.9" class="st2" width="1.8" height="21.2"/>
	<rect x="26.2" y="5.9" class="st2" width="1.8" height="21.2"/>
	<path class="st2" d="M33.3,9.4c3.1-0.1,4-0.1,4.2-0.4c0.1-0.1,0.1-0.2,0.1-0.3c0-0.1,0-0.2-0.1-0.3c-0.2-0.2-1.1-0.2-2.2-0.3V7.5   l1.9-0.8h-3v0.7h-1V6h5.2v0.8l-1.8,0.8c0.9,0,1.5,0.1,1.8,0.4c0.2,0.2,0.2,0.4,0.2,0.7c0,0.6-0.1,0.8-0.3,1c-0.4,0.3-1.5,0.5-5,0.5   L33.3,9.4z"/>
	<path class="st2" d="M33.3,14.9c3.1-0.1,4-0.1,4.2-0.4c0.1-0.1,0.1-0.2,0.1-0.3c0-0.1,0-0.2-0.1-0.3c-0.2-0.2-1.1-0.2-2.2-0.3V13   l1.9-0.8h-3v0.7h-1v-1.3h5.2v0.8l-1.8,0.8c0.9,0,1.5,0.1,1.8,0.4c0.2,0.2,0.2,0.4,0.2,0.7c0,0.6-0.1,0.8-0.3,1   c-0.4,0.3-1.5,0.5-5,0.5L33.3,14.9z"/>
	<path class="st2" d="M33.3,20.5c3.1-0.1,4-0.1,4.2-0.4c0.1-0.1,0.1-0.2,0.1-0.3c0-0.1,0-0.2-0.1-0.3c-0.2-0.2-1.1-0.2-2.2-0.3v-0.6   l1.9-0.8h-3v0.7h-1v-1.3h5.2v0.8l-1.8,0.8c0.9,0,1.5,0.1,1.8,0.4c0.2,0.2,0.2,0.4,0.2,0.7c0,0.6-0.1,0.8-0.3,1   c-0.4,0.3-1.5,0.5-5,0.5L33.3,20.5z"/>
	<path class="st3" d="M54.9,12c0.5,1,1.4,1.5,2.6,1.5c1.2,0,2-0.6,2-1.5c0-1.1-0.8-1.4-1.8-1.9l-0.8-0.3c-1.7-0.7-2.8-1.6-2.8-3.3   c0-1.7,1.3-2.9,3.1-2.9c1.4,0,2.5,0.6,3.2,1.8l-1.3,0.9c-0.4-0.7-1-1.1-1.8-1.1c-0.9,0-1.4,0.5-1.4,1.3c0,0.9,0.5,1.2,1.8,1.8   l0.8,0.3c1.7,0.8,2.8,1.5,2.8,3.4c0,2.1-1.6,3.1-3.7,3.1c-1.9,0-3.3-0.9-4.1-2.4L54.9,12z"/>
	<polygon class="st3" points="69.7,3.7 71.5,3.7 71.5,15 69.7,15 69.7,11.5 64.3,11.5 64.3,15 62.5,15 62.5,3.7 64.3,3.7 64.3,9.9    69.7,9.9  "/>
	<path class="st3" d="M72.8,9.3c0-3.3,2.6-5.8,5.8-5.8c3.2,0,5.8,2.5,5.8,5.8c0,3.3-2.6,5.8-5.8,5.8C75.4,15.1,72.8,12.7,72.8,9.3    M82.6,9.3c0-2.4-1.6-4.2-4-4.2c-2.3,0-4,1.8-4,4.2c0,2.4,1.6,4.2,4,4.2C81,13.5,82.6,11.7,82.6,9.3"/>
	<path class="st3" d="M93.5,15h-2.1l-1.9-2.7c-0.2,0-0.5,0-0.8,0h-1.1V15h-1.8V3.7h2.9c3.1,0,4.8,1.7,4.8,4.3c0,1.7-0.8,3.1-2.3,3.8   L93.5,15z M88.6,10.8c2.2,0,3-1,3-2.7c0-1.7-0.9-2.7-3-2.7h-1v5.5H88.6z"/>
	<polygon class="st3" points="97.1,5.3 93.8,5.3 93.8,3.7 102.3,3.7 102.3,5.3 98.9,5.3 98.9,15 97.1,15  "/>
	<path class="st3" d="M103.3,3.7h4c2.3,0,3.3,1.3,3.3,2.9c0,1-0.5,1.7-1.4,2.1c1.3,0.4,2.2,1.4,2.2,2.8c0,1.9-1.2,3.4-3.8,3.4h-4.3   V3.7z M107.2,8.1c1.2,0,1.6-0.6,1.6-1.5c0-0.9-0.4-1.4-1.6-1.4h-2.1v2.9H107.2z M107.5,13.4c1.6,0,2.1-0.8,2.1-1.9   c0-1.2-0.6-2-2.2-2h-2.4v3.9H107.5z"/>
	<path class="st3" d="M120.3,15h-2.1l-1.9-2.7c-0.2,0-0.5,0-0.8,0h-1.1V15h-1.8V3.7h2.9c3.1,0,4.8,1.7,4.8,4.3   c0,1.7-0.8,3.1-2.3,3.8L120.3,15z M115.4,10.8c2.2,0,3-1,3-2.7c0-1.7-0.9-2.7-3-2.7h-1v5.5H115.4z"/>
	<polygon class="st3" points="121.8,3.7 129,3.7 129,5.3 123.6,5.3 123.6,9.9 128.3,9.9 128.3,11.5 123.6,11.5 123.6,13.4    129.2,13.4 129.2,15 121.8,15  "/>
	<path class="st3" d="M131.6,15h-1.8l4.9-11.5h0.1l5,11.5H138l-0.6-1.6h-5L131.6,15z M134.8,7.4l-1.9,4.5h3.7   C136.7,11.8,134.8,7.4,134.8,7.4"/>
	<path class="st3" d="M140.9,3.7h3.2c3.7,0,5.9,2.3,5.9,5.6c0,3.3-2.2,5.6-5.9,5.6h-3.2V3.7z M143.9,13.4c2.9,0,4.2-1.7,4.2-4.1   c0-2.4-1.3-4.1-4.2-4.1h-1.3v8.1H143.9z"/>
	<polygon class="st3" points="30.3,31.2 2.6,21.4 4.5,16 30.7,25.3 93.9,16.6  "/>
	<g>
		<path class="st0" d="M12.3,57.5h0.9v-2.4h-0.9v-0.7c0.1,0,1.8,0,3.4,0c1.8,0,2.8,0.2,2.8,1.9c0,1.7-1.1,2-2.8,2    c-1.4,0-3.3,0-3.4,0V57.5z M15.6,57.5c1.3,0,1.8-0.2,1.8-1.3c0-1.1-0.5-1.2-1.8-1.2c-0.8,0-1.4,0-1.4,0v2.5    C14.2,57.5,14.7,57.5,15.6,57.5z"/>
		<path class="st0" d="M19.6,56.3c0-1.7,1-2.1,3.1-2.1c2,0,3.1,0.4,3.1,2c0,1.7-1.1,2-3.1,2C20.6,58.3,19.6,58,19.6,56.3z     M24.6,56.3c0-1.1-0.5-1.3-2-1.3c-1.5,0-2,0.2-2,1.3c0,1.1,0.5,1.3,2,1.3C24.1,57.6,24.6,57.4,24.6,56.3z"/>
		<path class="st0" d="M27.4,55.1h-0.9v-0.7h3V55h-1.1l1.1,2.3l1.1-2.4h1.1l1.1,2.5l1.1-2.3h-0.9v-0.7h2.8v0.7h-0.9l-1.5,3.2h-1    l-1.1-2.5l-1.2,2.5h-1L27.4,55.1z"/>
		<path class="st0" d="M36.7,55.1v-0.7h2.4L42,57v-2h-0.9v-0.7h2.7v0.7h-0.9v3.2h-1l-3.4-3.1c0,0,0,2.4,0,2.4h0.9v0.7h-2.8v-0.7h0.9    v-2.4H36.7z"/>
		<path class="st0" d="M46.2,57.5h1V55h-1.5v0.8h-0.9v-1.5h5.7v1.5h-0.9V55h-1.5v2.5h1v0.7h-3V57.5z"/>
		<path class="st0" d="M51.5,56.3c0-1.7,1-2.1,3.1-2.1c2,0,3.1,0.4,3.1,2c0,1.7-1.1,2-3.1,2C52.6,58.3,51.5,58,51.5,56.3z     M56.6,56.3c0-1.1-0.5-1.3-2-1.3c-1.5,0-2,0.2-2,1.3c0,1.1,0.5,1.3,2,1.3C56.1,57.6,56.6,57.4,56.6,56.3z"/>
		<path class="st0" d="M59.3,55.1h-0.9v-0.7h3V55h-1.1l1.1,2.3l1.1-2.4h1.1l1.1,2.5l1.1-2.3h-0.9v-0.7h2.8v0.7h-0.9l-1.5,3.2h-1    L63,55.7l-1.2,2.5h-1L59.3,55.1z"/>
		<path class="st0" d="M68.6,55.1v-0.7H71l2.9,2.7v-2H73v-0.7h2.7v0.7h-0.9v3.2h-1l-3.4-3.1c0,0,0,2.4,0,2.4h0.9v0.7h-2.8v-0.7h0.9    v-2.4H68.6z"/>
		<path class="st0" d="M79.9,56.3c0-1.7,1.1-2,2.9-2c1.4,0,2.3,0.2,2.6,0.3v1.2h-1v-0.7c-0.3-0.1-0.8-0.2-1.6-0.2    c-1.3,0-1.9,0.2-1.9,1.3c0,1.1,0.5,1.3,1.9,1.3c0.8,0,1.4-0.1,1.6-0.1v-0.8h1V58c-0.4,0.2-1.4,0.3-2.7,0.3    C81,58.3,79.9,58,79.9,56.3z"/>
		<path class="st0" d="M86.6,57.5h0.9v-2.4h-0.9v-0.7h2.9V55h-1v0.8h3.2V55h-1v-0.7h2.9v0.7h-0.9v2.4h0.9v0.7h-2.9v-0.7h1v-1h-3.2v1    h1v0.7h-2.9V57.5z"/>
		<path class="st0" d="M96.6,57.5h0.9v0.7h-2.8v-0.7h0.9l2.1-3.2h1.1l2.1,3.2h0.9v0.7h-3.1v-0.7h1.1l-0.3-0.5h-2.6L96.6,57.5z     M98.2,55.1l-0.9,1.4h1.8L98.2,55.1z"/>
		<path class="st0" d="M102.8,57.5h0.9v-2.4h-0.9v-0.7c0,0,3,0,4.2,0c1.1,0,1.7,0.2,1.7,1.3c0,1.1-0.6,1.3-1.7,1.3    c-0.4,0-2.1,0-2.3,0v0.6h1.1v0.7h-3V57.5z M107,56.2c0.6,0,0.7-0.1,0.7-0.6c0-0.5-0.2-0.6-0.8-0.6c-0.4,0-2.2,0-2.2,0v1.2    C105,56.2,106.7,56.2,107,56.2z"/>
		<path class="st0" d="M109.7,57.5h0.9v-2.4h-0.9v-0.7h5.7v1.5h-1V55h-2.9v0.8h1.9v0.7h-1.9v0.9h2.9v-0.9h1v1.5h-5.7V57.5z"/>
		<path class="st0" d="M116.5,57.5h0.9v-2.4h-0.9v-0.7h3v0.7h-1.1v2.5h2.8v-0.9h1v1.5h-5.7V57.5z"/>
		<path class="st0" d="M126.4,57.5h0.9v-2.4h-0.9v-0.7h2.9V55h-1v0.8h3.2V55h-1v-0.7h2.9v0.7h-0.9v2.4h0.9v0.7h-2.9v-0.7h1v-1h-3.2    v1h1v0.7h-2.9V57.5z"/>
		<path class="st0" d="M134.5,57.5h1v-2.4h-1v-0.7h3v0.7h-1v2.4h1v0.7h-3V57.5z"/>
		<path class="st0" d="M138.5,57.5h0.9v-2.4h-0.9v-0.7h3v0.7h-1.1v2.5h2.8v-0.9h1v1.5h-5.7V57.5z"/>
		<path class="st0" d="M145.2,57.5h0.9v-2.4h-0.9v-0.7h3v0.7h-1.1v2.5h2.8v-0.9h1v1.5h-5.7V57.5z"/>
	</g>
	<rect x="12.2" y="45.7" class="st1" width="138.8" height="5.6"/>
</g>
</svg>