<svg xmlns="http://www.w3.org/2000/svg" alt="Entrata Inc. Logo" class="landing-logo" id="Layer_1" style="enable-background:new 0 0 702 140" version="1.1" viewBox="0 0 702 140" x="0px" xml:space="preserve" y="0px"><style type="text/css">
	.white-logo{fill:#FFF;}
</style><g id="Layer_1-2"><g><g id="Lettermark_White"><g><path class="white-logo" d="M93.7,115.1C84,126.5,68.3,132.9,53,132.9c-29.7,0-52-20.5-52-51.6c0-27.6,18.8-51.7,48.3-51.7
					c27.4,0,46.8,23.1,46.8,50.7c0,2.7-0.2,5.3-0.6,7.6H26.8c1.4,13.9,12.7,23.5,26.8,23.5c11.2,0,20.2-6.3,24.9-11.5L93.7,115.1
					L93.7,115.1z M68.9,68.4c-0.8-8.8-8.8-17.4-19.6-17.4s-20,8.4-21.3,17.4H68.9z"></path><path class="white-logo" d="M110.4,130.8V31.6H136v8c7.6-6.1,17-10,28-10c13.7,0,26.2,6.1,34.4,15.9c6.5,7.8,10.2,17.8,10.2,34.8v50.5
					H182V78.2c0-9.8-2.2-14.9-5.9-18.6c-3.5-3.5-8.8-5.5-14.9-5.5c-11.2,0-20.5,7.2-24.1,12.3v64.4L110.4,130.8L110.4,130.8z"></path><path class="white-logo" d="M466.4,130.8h-25.6v-8c-8.2,7-17.6,10-27.6,10c-14.7,0-28.6-6.5-37.4-16.8c-7.8-9-12.7-21.3-12.7-34.8
					c0-29.2,21.7-51.7,48.7-51.7c11.2,0,21.3,3.7,29,10v-8h25.6V130.8L466.4,130.8z M439.8,66.4c-5.5-7.4-14.3-12.3-24.6-12.3
					c-15.6,0-25.6,12.9-25.6,27.2c0,15.6,11.2,27,26.2,27c10,0,18.8-4.9,23.9-12.3L439.8,66.4L439.8,66.4z"></path><path class="white-logo" d="M656.7,130.8h-25.6v-8c-8.2,7-17.6,10-27.6,10c-14.7,0-28.6-6.5-37.4-16.8c-7.8-9-12.7-21.3-12.7-34.8
					c0-29.2,21.7-51.7,48.7-51.7c11.2,0,21.3,3.7,29,10v-8h25.6L656.7,130.8L656.7,130.8z M630.1,66.4c-5.5-7.4-14.3-12.3-24.5-12.3
					C590,54.1,580,67,580,81.3c0,15.6,11.2,27,26.2,27c10,0,18.8-4.9,23.9-12.3V66.4L630.1,66.4z"></path><path class="white-logo" d="M362.1,30.4c-2.9-0.4-5.1-0.8-9-0.8c-12.1,0-22.9,4.7-28.8,12.1v-10h-25.6v99.2h26.6V68.4
					c3.3-5.9,12.5-14.3,24.1-14.3c3.9,0,7.7,0.6,9.6,1l3.1,0.6L362.1,30.4L362.1,30.4z"></path><rect class="white-logo" height="27.2" width="26.6" x="251.4" y="103.6"></rect><polygon class="white-logo" points="224.7,103.6 251.3,103.6 251.3,54.1 284,54.1 284,31.6 251.3,31.6 251.3,4 224.7,4 				"></polygon><rect class="white-logo" height="27.2" width="26.6" x="512.8" y="103.6"></rect><polygon class="white-logo" points="486.2,103.6 512.8,103.6 512.8,54.1 545.5,54.1 545.5,31.6 512.8,31.6 512.8,4 486.2,4 				"></polygon></g></g><path class="white-logo" d="M667.5,20.8c0-9.2,7.4-16.8,16.8-16.8c9.4,0,16.8,7.5,16.8,16.8s-7.4,16.8-16.8,16.8
			C674.9,37.5,667.5,30,667.5,20.8z M684.2,33.9c7.2,0,13-5.9,13-13.2s-5.7-13.2-13-13.2c-7.2,0-13,5.9-13,13.2S677,33.9,684.2,33.9
			z M682,22.1v7.2h-3.9V12.2h6.5c2.1,0,3.4,0.5,4.3,1.3c1.1,0.9,1.7,2.3,1.7,3.8c0,1.7-0.8,3.1-2.2,3.9c-0.3,0.2-0.7,0.4-1.1,0.5
			l5.1,7.5h-4.2l-4.8-7.2L682,22.1L682,22.1z M684.7,18.9c0.9,0,1.3-0.2,1.7-0.6c0.2-0.2,0.3-0.6,0.3-0.9c0-0.4-0.1-0.8-0.3-1
			c-0.3-0.4-0.8-0.6-1.7-0.6H682v3.1L684.7,18.9L684.7,18.9z"></path></g></g></svg>