<svg xmlns="http://www.w3.org/2000/svg" xmlns:xlink="http://www.w3.org/1999/xlink" version="1.1" id="Layer_1" x="0px" y="0px" viewBox="0 0 412.68 440.46" style="enable-background:new 0 0 412.68 440.46;" xml:space="preserve" width="412.68"  height="440.46" >
<style type="text/css">
	.st0{fill:#FFFFFF;}
</style>
<g>
	<g>
		<path class="st0" d="M283.91,385.95c-5.08,0-8.53,3.98-8.53,9.19s3.45,9.19,8.53,9.19c5.09,0,8.53-3.98,8.53-9.19    S289,385.95,283.91,385.95z"/>
		<path class="st0" d="M84.54,396.29l-2.01,4.84h7.34l-2.01-4.84c-0.82-1.97-1.68-5-1.68-5S85.36,394.32,84.54,396.29z"/>
		<path class="st0" d="M156.93,386.24h-1.8v11.44h1.8c4.68,0,6.73-1.89,6.73-5.7C163.65,388.13,161.52,386.24,156.93,386.24z"/>
		<path class="st0" d="M4.5,4.94v351.34v3.84v75.4h403.68v-75.4v-3.84V4.94H4.5z M54.96,409.46c-8,0-14.36-6.07-14.36-14.32    s6.36-14.27,14.36-14.27c5.04,0,8.65,1.8,11.16,5.7l-4.39,3.12c-1.31-2.13-3.57-3.65-6.77-3.65c-5.04,0-8.45,3.9-8.45,9.11    s3.4,9.19,8.45,9.19c3.61,0,5.62-1.72,7.18-4.1l4.47,3.08C64.19,407.08,60.34,409.46,54.96,409.46z M93.23,409.09l-1.31-3.16H80.6    l-1.31,3.16h-5.54l12.26-28.14h0.49l12.76,28.14H93.23z M137.4,409.09h-5.54v-10.46c0-1.89,0.21-4.88,0.21-4.88    s-1.68,2.46-2.99,3.94l-5.54,6.19h-0.53l-5.54-6.19c-1.31-1.48-2.99-3.94-2.99-3.94s0.21,2.99,0.21,4.88v10.46h-5.5v-28.18h0.45    L123.38,396l13.54-15.09h0.49V409.09z M157.09,402.73h-1.97v6.36h-5.74V381.2h7.71c7.79,0,12.47,4.06,12.47,10.79    C169.56,398.71,164.84,402.73,157.09,402.73z M202.62,399c0,7.05-4.88,10.46-11.24,10.46c-6.44,0-11.32-3.4-11.32-10.46v-17.8    h5.74v17.47c0,4.06,1.76,5.62,5.58,5.62c3.77,0,5.5-1.56,5.5-5.62V381.2h5.74V399z M222.31,409.46c-5.33,0-8.78-2.54-10.46-5.87    l4.68-2.71c1.23,2.01,2.83,3.49,5.66,3.49c2.38,0,3.9-1.19,3.9-2.83c0-1.97-1.56-2.67-4.18-3.81l-1.44-0.62    c-4.14-1.76-6.89-3.98-6.89-8.65c0-4.31,3.28-7.59,8.41-7.59c3.65,0,6.27,1.27,8.16,4.59l-4.47,2.87    c-0.98-1.76-2.05-2.46-3.69-2.46c-1.68,0-2.75,1.07-2.75,2.46c0,1.72,1.07,2.42,3.53,3.49l1.44,0.62    c4.88,2.09,7.63,4.22,7.63,9.02C231.82,406.63,227.76,409.46,222.31,409.46z M261.68,386.24h-7.96v22.85h-5.74v-22.85h-7.96v-5.05    h21.66V386.24z M283.91,409.46c-8.04,0-14.44-6.07-14.44-14.32s6.4-14.32,14.44-14.32c8.04,0,14.44,6.07,14.44,14.32    S291.95,409.46,283.91,409.46z M332.93,409.33h-0.57l-6.28-13.45c-0.74-1.56-1.56-4.14-1.56-4.14s-0.86,2.58-1.6,4.14l-6.52,13.45    h-0.57l-10.3-28.14h6.07l4.06,11.2c0.7,1.93,1.48,5.04,1.48,5.04s0.82-3.16,1.72-5.04l5.37-11.45h0.57l5.46,11.45    c0.9,1.89,1.72,5.04,1.72,5.04s0.78-3.12,1.48-5.04l4.02-11.2h5.58L332.93,409.33z M375.91,409.33h-0.57l-14.07-13.21    c-1.4-1.31-3.32-3.82-3.32-3.82s0.41,3.08,0.41,5.09v11.69h-5.37v-28.14h0.57l14.07,13.21c1.35,1.27,3.28,3.81,3.28,3.81    s-0.37-3.16-0.37-5.08V381.2h5.37V409.33z M400.5,352.45H12.17V12.62H400.5V352.45z"/>
	</g>
	<g>
		<path class="st0" d="M267.95,146.75h-14.69v-4.5h34.44v4.5h-14.69v43.3h-5.06V146.75z"/>
		<path class="st0" d="M296.56,142.25h5.06v26.92h25.58v-26.92h5.06v47.79h-5.06v-16.24h-25.58v16.24h-5.06V142.25z"/>
		<path class="st0" d="M345.34,142.25h29.1v4.5H350.4v22.42h21.44v4.43H350.4v11.95h25.02v4.5h-30.08V142.25z"/>
	</g>
	<g>
		<path class="st0" d="M40.52,222.93h28.01c28.01,0,47.99,18.63,47.99,45.57s-19.84,45.57-47.99,45.57H40.52V222.93z M67.6,297.6    c20.24,0,29.49-12.06,29.49-29.09c0-17.02-9.25-29.09-29.49-29.09h-8.31v58.17H67.6z"/>
		<path class="st0" d="M132.35,222.93h60.32v16.49h-41.55v28.95h36.59v16.09h-36.59v13.14h43.43v16.49h-62.2V222.93z"/>
		<path class="st0" d="M245.35,222.13h1.61l41.69,91.95h-19.7l-4.29-10.32h-37l-4.29,10.32h-18.09L245.35,222.13z M257.95,288.08    l-6.57-15.82c-2.68-6.43-5.5-16.35-5.5-16.35s-2.68,9.92-5.36,16.35l-6.57,15.82H257.95z"/>
		<path class="st0" d="M328.06,271.73c-4.56-4.29-10.86-12.47-10.86-12.47s1.34,10.05,1.34,16.62v38.2h-17.56v-91.95h1.88    l45.98,43.16c4.42,4.16,10.72,12.47,10.72,12.47s-1.21-10.32-1.21-16.62v-38.2h17.56v91.95h-1.88L328.06,271.73z"/>
	</g>
</g>
</svg>