<svg xmlns="http://www.w3.org/2000/svg" xmlns:xlink="http://www.w3.org/1999/xlink" version="1.1" id="Layer_1" x="0px" y="0px" viewBox="0 0 419 118.51" style="enable-background:new 0 0 419 118.51;" xml:space="preserve" width="419"  height="118.51" >
<style type="text/css">
	.st0{fill:#1B3142;}
	.st1{fill:#3F73B9;}
</style>
<g>
	<g>
		<g>
			<path class="st0" d="M100.39,2.35h0.82l19.68,46.95h-5.19l-3.14-7.79H89.05l-3.07,7.79h-4.85L100.39,2.35z M110.78,37.27     l-8.2-20.64c-0.89-2.19-1.78-5.54-1.78-5.54s-0.96,3.35-1.85,5.54l-8.2,20.64H110.78z"/>
			<path class="st0" d="M124.03,26.06c0-14.01,10.66-23.78,23.85-23.78c8.2,0,14.49,3.08,18.45,9.02l-3.76,2.73     c-3.01-4.44-8-7.31-14.69-7.31c-10.87,0-18.72,8.27-18.72,19.34s7.86,19.34,18.72,19.34c6.76,0,11.96-2.94,15.31-7.79l3.83,2.67     c-4.1,6.01-10.8,9.57-19.13,9.57C134.69,49.84,124.03,40.07,124.03,26.06z"/>
			<path class="st0" d="M190.73,2.35h0.82l19.68,46.95h-5.19l-3.14-7.79h-23.51l-3.07,7.79h-4.85L190.73,2.35z M201.11,37.27     l-8.2-20.64c-0.89-2.19-1.78-5.54-1.78-5.54s-0.96,3.35-1.85,5.54l-8.2,20.64H201.11z"/>
			<path class="st0" d="M220.11,2.83h11.27c15.51,0,25.15,9.16,25.15,23.23c0,14.08-9.57,23.23-25.15,23.23h-11.27V2.83z      M231.04,44.86c13.74,0,20.3-7.72,20.3-18.79s-6.56-18.79-20.3-18.79h-6.01v37.58H231.04z"/>
			<path class="st0" d="M266.57,2.83h28.29V7.2h-23.37V29h20.84v4.31h-20.84v11.62h24.33v4.37h-29.25V2.83z"/>
			<path class="st0" d="M306.2,2.28h0.68l21.59,26.99l21.46-26.99h0.75V49.3h-4.78V18.61c0-2.12,0.21-5.33,0.21-5.33     s-1.78,3.01-3.28,4.85L328.75,35.9h-0.82l-13.87-17.77c-1.5-1.84-3.35-4.85-3.35-4.85s0.27,3.21,0.27,5.33V49.3h-4.78V2.28z"/>
			<path class="st0" d="M377.13,34.74L359.57,2.83h5.54l12.64,23.1c1.03,1.78,1.98,4.72,1.98,4.72s1.03-2.87,1.98-4.72l12.57-23.1     h5.13l-17.22,31.71V49.3h-5.06V34.74z"/>
		</g>
	</g>
	<g>
		<path class="st1" d="M187.28,73.6c0-0.96,0.17-1.91,0.52-2.86c0.35-0.94,0.86-1.78,1.52-2.52c0.67-0.74,1.48-1.34,2.44-1.8    c0.96-0.46,2.06-0.69,3.29-0.69c1.45,0,2.71,0.32,3.77,0.96c1.06,0.64,1.85,1.47,2.37,2.49l-2.36,1.62    c-0.21-0.44-0.46-0.82-0.76-1.12c-0.3-0.3-0.62-0.54-0.96-0.72c-0.34-0.18-0.7-0.31-1.07-0.39c-0.37-0.08-0.73-0.12-1.09-0.12    c-0.77,0-1.44,0.16-2.01,0.47c-0.57,0.31-1.04,0.71-1.42,1.21c-0.38,0.5-0.66,1.06-0.86,1.69c-0.19,0.63-0.29,1.26-0.29,1.88    c0,0.7,0.11,1.37,0.33,2.01c0.22,0.64,0.54,1.21,0.94,1.7c0.41,0.49,0.9,0.88,1.47,1.18c0.57,0.3,1.2,0.44,1.88,0.44    c0.36,0,0.73-0.04,1.11-0.13c0.38-0.09,0.75-0.23,1.1-0.42c0.35-0.19,0.67-0.44,0.97-0.74c0.3-0.3,0.53-0.67,0.71-1.1l2.51,1.44    c-0.25,0.59-0.61,1.12-1.08,1.57c-0.47,0.45-0.99,0.83-1.58,1.14c-0.59,0.31-1.21,0.55-1.88,0.71c-0.67,0.16-1.32,0.24-1.96,0.24    c-1.13,0-2.16-0.24-3.09-0.71c-0.93-0.47-1.74-1.09-2.41-1.86s-1.2-1.63-1.58-2.6C187.47,75.59,187.28,74.6,187.28,73.6z"/>
		<path class="st1" d="M213.3,65.82h2.71l6,15.78h-3.16l-1.47-3.93h-5.51l-1.44,3.93h-3.16L213.3,65.82z M216.83,75.51l-2.18-6.2    l-2.27,6.2H216.83z"/>
		<path class="st1" d="M242.17,81.6V71.15l-4.07,7.78h-1.67l-4.07-7.78V81.6h-3.07V65.82h3.29l4.67,8.98l4.71-8.98h3.27V81.6H242.17    z"/>
		<path class="st1" d="M254.08,81.6V65.82h6.69c0.73,0,1.4,0.15,2.01,0.46c0.62,0.3,1.14,0.7,1.59,1.2c0.44,0.5,0.79,1.06,1.04,1.69    c0.25,0.63,0.38,1.26,0.38,1.9c0,0.67-0.12,1.31-0.36,1.94c-0.24,0.63-0.57,1.19-1,1.68c-0.43,0.49-0.95,0.88-1.56,1.18    c-0.61,0.3-1.27,0.44-2,0.44h-3.73v5.29H254.08z M257.15,73.62h3.56c0.56,0,1.03-0.23,1.41-0.69c0.38-0.46,0.57-1.08,0.57-1.87    c0-0.4-0.06-0.76-0.18-1.08c-0.12-0.32-0.27-0.59-0.47-0.81c-0.19-0.22-0.42-0.39-0.68-0.5c-0.26-0.11-0.52-0.17-0.79-0.17h-3.42    V73.62z"/>
		<path class="st1" d="M280.15,79c0.73,0,1.34-0.15,1.83-0.44c0.5-0.3,0.9-0.68,1.2-1.16c0.3-0.47,0.52-1.02,0.64-1.63    c0.13-0.61,0.19-1.25,0.19-1.9v-8.05h3.04v8.05c0,1.08-0.13,2.1-0.39,3.04c-0.26,0.95-0.67,1.78-1.22,2.49    c-0.56,0.71-1.27,1.27-2.14,1.69c-0.87,0.41-1.92,0.62-3.13,0.62c-1.26,0-2.33-0.22-3.21-0.66c-0.88-0.44-1.6-1.01-2.14-1.73    c-0.55-0.72-0.94-1.55-1.19-2.5c-0.24-0.95-0.37-1.93-0.37-2.96v-8.05h3.07v8.05c0,0.67,0.06,1.31,0.19,1.92    c0.13,0.62,0.34,1.16,0.64,1.63c0.3,0.47,0.7,0.86,1.19,1.14C278.84,78.85,279.44,79,280.15,79z"/>
		<path class="st1" d="M305.11,69.95c-0.1-0.1-0.29-0.24-0.57-0.42c-0.27-0.18-0.61-0.35-1-0.52c-0.39-0.17-0.82-0.31-1.28-0.43    c-0.46-0.12-0.93-0.18-1.4-0.18c-0.84,0-1.47,0.16-1.89,0.47c-0.42,0.31-0.62,0.75-0.62,1.31c0,0.33,0.08,0.6,0.23,0.81    c0.16,0.21,0.38,0.4,0.68,0.57c0.3,0.16,0.67,0.31,1.12,0.44c0.45,0.13,0.97,0.27,1.57,0.42c0.77,0.21,1.47,0.43,2.1,0.67    c0.63,0.24,1.16,0.53,1.6,0.89c0.44,0.36,0.77,0.78,1.01,1.28c0.24,0.5,0.36,1.11,0.36,1.83c0,0.84-0.16,1.57-0.48,2.17    c-0.32,0.6-0.75,1.09-1.29,1.46c-0.54,0.37-1.16,0.64-1.87,0.81c-0.7,0.17-1.44,0.26-2.21,0.26c-1.19,0-2.36-0.18-3.51-0.53    c-1.16-0.36-2.19-0.86-3.11-1.51l1.36-2.64c0.13,0.13,0.37,0.31,0.72,0.52c0.35,0.22,0.76,0.43,1.23,0.64    c0.47,0.22,1,0.4,1.58,0.54c0.58,0.15,1.17,0.22,1.78,0.22c1.69,0,2.53-0.54,2.53-1.62c0-0.34-0.1-0.63-0.29-0.87    c-0.19-0.24-0.47-0.44-0.82-0.62c-0.36-0.18-0.79-0.34-1.29-0.49c-0.5-0.15-1.07-0.31-1.69-0.49c-0.76-0.21-1.41-0.43-1.97-0.68    c-0.56-0.24-1.02-0.53-1.39-0.87c-0.37-0.33-0.65-0.72-0.83-1.16c-0.19-0.44-0.28-0.96-0.28-1.57c0-0.8,0.15-1.51,0.44-2.13    c0.3-0.62,0.71-1.14,1.23-1.56c0.53-0.41,1.14-0.73,1.83-0.94c0.7-0.21,1.44-0.32,2.24-0.32c1.11,0,2.13,0.17,3.07,0.52    c0.93,0.35,1.75,0.76,2.44,1.23L305.11,69.95z"/>
		<path class="st1" d="M326.58,68.51h-5.04V81.6h-3.04V68.51h-5.04v-2.69h13.13V68.51z"/>
		<path class="st1" d="M340.09,81.71c-1.16,0-2.2-0.23-3.14-0.68c-0.94-0.45-1.75-1.05-2.42-1.8c-0.67-0.75-1.2-1.6-1.57-2.57    c-0.37-0.96-0.56-1.95-0.56-2.96c0-1.05,0.2-2.06,0.59-3.02c0.39-0.96,0.93-1.81,1.62-2.56c0.69-0.74,1.51-1.33,2.46-1.77    c0.95-0.44,1.98-0.66,3.09-0.66c1.14,0,2.18,0.23,3.12,0.7c0.94,0.47,1.74,1.08,2.41,1.83c0.67,0.76,1.18,1.62,1.56,2.58    c0.37,0.96,0.56,1.94,0.56,2.93c0,1.05-0.19,2.06-0.58,3.01s-0.92,1.8-1.6,2.53c-0.68,0.73-1.5,1.32-2.44,1.76    C342.23,81.49,341.2,81.71,340.09,81.71z M335.51,73.71c0,0.68,0.1,1.34,0.31,1.98c0.21,0.64,0.51,1.2,0.9,1.69    c0.39,0.49,0.87,0.88,1.44,1.18c0.57,0.3,1.22,0.44,1.94,0.44c0.74,0,1.4-0.15,1.97-0.46c0.57-0.3,1.05-0.71,1.44-1.21    s0.69-1.07,0.89-1.7c0.2-0.63,0.3-1.27,0.3-1.92c0-0.68-0.11-1.34-0.32-1.98c-0.22-0.64-0.52-1.2-0.91-1.69    c-0.39-0.49-0.87-0.88-1.44-1.17c-0.57-0.29-1.21-0.43-1.92-0.43c-0.74,0-1.4,0.15-1.98,0.46c-0.58,0.3-1.06,0.7-1.44,1.2    c-0.38,0.5-0.68,1.06-0.88,1.69C335.61,72.41,335.51,73.05,335.51,73.71z"/>
		<path class="st1" d="M360.58,65.86h2.82l1.78,5.22l1.78-5.22h2.84l-2.69,7.18l2,5.04l4.47-12.27h3.33l-6.42,15.78h-2.58    l-2.73-6.62l-2.73,6.62h-2.58l-6.38-15.78h3.29l4.49,12.27l1.96-5.04L360.58,65.86z"/>
		<path class="st1" d="M387.16,71.48V81.6h-3.07V65.82h2.38l8.22,10.36V65.84h3.07V81.6h-2.49L387.16,71.48z"/>
	</g>
	<path class="st0" d="M19.07,2.28V49.3h47.01V2.28H19.07z M32.69,21.2h-3.82v10.98h-2.76V21.2h-3.82v-2.42h10.4V21.2z M47.93,32.18   h-2.76V28.1h-5.73v4.08h-2.76v-13.4h2.76v6.86h5.73v-6.86h2.76V32.18z M61.84,32.18H52.7v-13.4h8.87v2.42h-6.11v4.26h5.38v2.36   h-5.38v1.93h6.38V32.18z"/>
</g>
<g>
	<path class="st0" d="M7.42,110.58c0.64,0.11,1.15,0.4,1.53,0.87c0.38,0.47,0.57,1.06,0.57,1.75c0,0.44-0.08,0.83-0.24,1.2   c-0.16,0.36-0.39,0.67-0.68,0.93c-0.29,0.26-0.65,0.45-1.06,0.59c-0.41,0.14-0.87,0.21-1.37,0.21c-0.73,0-1.38-0.15-1.93-0.44   c-0.55-0.29-0.97-0.7-1.25-1.23l0.68-0.62c0.2,0.42,0.51,0.76,0.93,1.01c0.42,0.25,0.94,0.38,1.56,0.38c0.72,0,1.29-0.18,1.71-0.53   c0.42-0.35,0.62-0.86,0.62-1.51c0-0.67-0.22-1.19-0.65-1.58c-0.43-0.39-1.06-0.58-1.88-0.58H5.61v-0.84H6   c0.74,0,1.31-0.17,1.71-0.52c0.4-0.34,0.59-0.79,0.59-1.34c0-0.29-0.05-0.55-0.16-0.77c-0.11-0.22-0.25-0.41-0.44-0.56   c-0.19-0.15-0.41-0.26-0.67-0.34c-0.26-0.08-0.53-0.12-0.83-0.12c-0.55,0-1.04,0.12-1.46,0.37c-0.42,0.25-0.74,0.59-0.95,1.02   l-0.64-0.61c0.12-0.25,0.28-0.48,0.49-0.69c0.21-0.21,0.45-0.38,0.72-0.53c0.27-0.15,0.57-0.26,0.9-0.34   c0.33-0.08,0.67-0.12,1.01-0.12c0.44,0,0.85,0.06,1.22,0.19c0.37,0.13,0.69,0.3,0.96,0.53c0.27,0.23,0.48,0.5,0.63,0.82   c0.15,0.32,0.22,0.67,0.22,1.06c0,0.29-0.04,0.57-0.13,0.83c-0.09,0.27-0.21,0.5-0.38,0.71c-0.16,0.21-0.36,0.38-0.6,0.52   C7.99,110.45,7.72,110.54,7.42,110.58z"/>
	<path class="st0" d="M18.26,109.75c0,0.64-0.09,1.22-0.28,1.76c-0.18,0.54-0.44,1-0.76,1.39c-0.32,0.39-0.71,0.69-1.15,0.91   c-0.44,0.22-0.93,0.33-1.45,0.33c-0.52,0-1-0.11-1.45-0.33c-0.44-0.22-0.83-0.52-1.15-0.91c-0.32-0.39-0.58-0.85-0.76-1.39   c-0.18-0.54-0.28-1.12-0.28-1.76c0-0.64,0.09-1.22,0.28-1.76c0.18-0.54,0.44-1,0.76-1.39c0.32-0.39,0.71-0.7,1.15-0.92   c0.44-0.22,0.93-0.33,1.45-0.33c0.52,0,1,0.11,1.45,0.33c0.44,0.22,0.83,0.53,1.15,0.92c0.32,0.39,0.58,0.85,0.76,1.39   C18.17,108.53,18.26,109.11,18.26,109.75z M17.26,109.75c0-0.52-0.07-1-0.2-1.42c-0.13-0.43-0.31-0.79-0.54-1.09   c-0.23-0.3-0.51-0.54-0.83-0.71c-0.32-0.17-0.68-0.25-1.07-0.25c-0.4,0-0.76,0.08-1.08,0.25c-0.32,0.17-0.6,0.41-0.83,0.71   c-0.23,0.3-0.41,0.67-0.54,1.09c-0.13,0.42-0.2,0.9-0.2,1.42c0,0.52,0.06,1,0.2,1.42c0.13,0.43,0.31,0.79,0.54,1.09   c0.23,0.3,0.51,0.54,0.83,0.7c0.32,0.16,0.68,0.25,1.08,0.25c0.39,0,0.74-0.08,1.07-0.25c0.32-0.16,0.6-0.4,0.83-0.7   c0.23-0.3,0.41-0.67,0.54-1.09C17.19,110.75,17.26,110.27,17.26,109.75z"/>
	<path class="st0" d="M24.74,106.46h-5.55v-0.91h7.11l-5.2,10.29h-1.13L24.74,106.46z"/>
	<path class="st0" d="M38.34,113.1v0.9h-6.91v-10.29h6.78v0.9h-5.77v3.71h5.03v0.85h-5.03v3.93H38.34z"/>
	<path class="st0" d="M43.95,114v-10.29h3.49c0.82,0,1.54,0.14,2.15,0.41c0.61,0.27,1.12,0.64,1.54,1.1   c0.41,0.46,0.72,1.01,0.93,1.63c0.21,0.62,0.31,1.29,0.31,1.99c0,0.78-0.12,1.49-0.35,2.12s-0.56,1.17-0.99,1.62   c-0.43,0.45-0.95,0.8-1.55,1.04S48.2,114,47.44,114H43.95z M51.35,108.84c0-0.62-0.09-1.19-0.26-1.7s-0.43-0.96-0.76-1.34   c-0.33-0.38-0.74-0.67-1.22-0.88c-0.48-0.21-1.04-0.31-1.67-0.31h-2.48v8.49h2.48c0.64,0,1.2-0.11,1.69-0.33s0.9-0.52,1.22-0.9   c0.33-0.38,0.58-0.83,0.75-1.35C51.27,110.01,51.35,109.45,51.35,108.84z"/>
	<path class="st0" d="M57.14,103.71h0.85L62.27,114h-1.07l-1.33-3.22h-4.62L53.92,114h-1.09L57.14,103.71z M59.63,109.98l-2.07-5.09   l-2.1,5.09H59.63z"/>
	<path class="st0" d="M64.76,105.59v8.4h-1.01v-10.29h0.78l6.81,8.56v-8.55h1.01V114h-0.88L64.76,105.59z"/>
	<path class="st0" d="M74.93,114v-10.29h1.01V114H74.93z"/>
	<path class="st0" d="M85.43,113.1v0.9h-6.91v-10.29h6.78v0.9h-5.77v3.71h5.03v0.85h-5.03v3.93H85.43z"/>
	<path class="st0" d="M87.35,114v-10.29h1.01v9.39h5.94v0.9H87.35z"/>
	<path class="st0" d="M102.75,115.88v-13.11h0.85v13.11H102.75z"/>
	<path class="st0" d="M116.26,109.48c0.47,0,0.91,0.08,1.32,0.24c0.41,0.16,0.76,0.38,1.06,0.67c0.3,0.29,0.54,0.63,0.72,1.04   s0.26,0.84,0.26,1.33c0,0.51-0.09,0.98-0.28,1.4c-0.19,0.42-0.44,0.78-0.77,1.07c-0.32,0.29-0.7,0.52-1.14,0.69   c-0.43,0.16-0.9,0.25-1.39,0.25c-0.37,0-0.72-0.05-1.05-0.14c-0.33-0.09-0.64-0.22-0.92-0.4c-0.28-0.17-0.53-0.38-0.76-0.62   c-0.23-0.24-0.41-0.51-0.56-0.81l0.65-0.49c0.27,0.47,0.64,0.85,1.11,1.15c0.47,0.29,0.98,0.44,1.54,0.44c0.36,0,0.69-0.06,1-0.18   c0.31-0.12,0.58-0.29,0.81-0.51c0.23-0.22,0.41-0.49,0.54-0.8c0.13-0.31,0.2-0.65,0.2-1.01c0-0.36-0.06-0.68-0.19-0.98   c-0.13-0.29-0.3-0.55-0.52-0.76c-0.22-0.21-0.48-0.38-0.78-0.49c-0.3-0.12-0.62-0.17-0.97-0.17c-0.45,0-0.88,0.1-1.28,0.3   c-0.4,0.2-0.73,0.49-0.98,0.86h-0.91c0.01-0.06,0.03-0.19,0.07-0.39c0.04-0.2,0.09-0.44,0.14-0.72c0.06-0.28,0.12-0.59,0.19-0.94   c0.07-0.34,0.14-0.69,0.2-1.04c0.16-0.81,0.34-1.71,0.54-2.71h4.97v0.91h-4.23l-0.71,3.69c0.25-0.27,0.56-0.48,0.92-0.63   C115.42,109.55,115.82,109.48,116.26,109.48z"/>
	<path class="st0" d="M128.21,109.75c0,0.64-0.09,1.22-0.28,1.76c-0.18,0.54-0.44,1-0.76,1.39c-0.32,0.39-0.71,0.69-1.15,0.91   c-0.44,0.22-0.93,0.33-1.45,0.33c-0.52,0-1-0.11-1.45-0.33c-0.44-0.22-0.83-0.52-1.15-0.91c-0.32-0.39-0.58-0.85-0.76-1.39   c-0.18-0.54-0.28-1.12-0.28-1.76c0-0.64,0.09-1.22,0.28-1.76c0.18-0.54,0.44-1,0.76-1.39s0.71-0.7,1.15-0.92   c0.44-0.22,0.93-0.33,1.45-0.33c0.52,0,1,0.11,1.45,0.33c0.44,0.22,0.83,0.53,1.15,0.92c0.32,0.39,0.58,0.85,0.76,1.39   C128.12,108.53,128.21,109.11,128.21,109.75z M127.21,109.75c0-0.52-0.07-1-0.2-1.42c-0.13-0.43-0.31-0.79-0.54-1.09   c-0.23-0.3-0.51-0.54-0.83-0.71c-0.32-0.17-0.68-0.25-1.07-0.25c-0.4,0-0.76,0.08-1.08,0.25c-0.32,0.17-0.6,0.41-0.83,0.71   c-0.23,0.3-0.41,0.67-0.54,1.09c-0.13,0.42-0.2,0.9-0.2,1.42c0,0.52,0.06,1,0.2,1.42c0.13,0.43,0.31,0.79,0.54,1.09   c0.23,0.3,0.51,0.54,0.83,0.7c0.32,0.16,0.68,0.25,1.08,0.25c0.39,0,0.74-0.08,1.07-0.25c0.32-0.16,0.6-0.4,0.83-0.7   c0.23-0.3,0.41-0.67,0.54-1.09C127.14,110.75,127.21,110.27,127.21,109.75z"/>
	<path class="st0" d="M134.89,113.1v0.9h-4.91v-0.9h2.06v-6.2c-0.08,0.12-0.21,0.24-0.4,0.38c-0.19,0.13-0.4,0.26-0.62,0.38   s-0.46,0.21-0.7,0.29c-0.24,0.08-0.45,0.12-0.64,0.12v-0.96c0.22,0,0.47-0.06,0.73-0.19c0.27-0.12,0.52-0.27,0.75-0.43   c0.24-0.16,0.44-0.32,0.6-0.46c0.16-0.15,0.26-0.24,0.28-0.29h1.01v7.37H134.89z"/>
	<path class="st0" d="M146.21,105.64c-0.29-0.33-0.68-0.59-1.16-0.8s-1.03-0.3-1.65-0.3c-0.91,0-1.57,0.17-1.99,0.51   c-0.42,0.34-0.62,0.81-0.62,1.4c0,0.31,0.06,0.56,0.17,0.76c0.11,0.2,0.28,0.37,0.51,0.52c0.23,0.14,0.53,0.27,0.89,0.38   c0.36,0.11,0.79,0.21,1.28,0.32c0.55,0.12,1.05,0.25,1.49,0.39c0.44,0.15,0.81,0.33,1.12,0.54c0.31,0.22,0.55,0.48,0.71,0.79   s0.25,0.69,0.25,1.16c0,0.47-0.09,0.88-0.28,1.23c-0.18,0.35-0.44,0.64-0.77,0.87c-0.33,0.23-0.72,0.4-1.17,0.52   c-0.45,0.11-0.95,0.17-1.49,0.17c-1.59,0-2.97-0.5-4.13-1.49l0.51-0.83c0.18,0.19,0.4,0.38,0.66,0.55   c0.26,0.17,0.54,0.33,0.85,0.46c0.31,0.13,0.65,0.23,1.01,0.3c0.36,0.07,0.73,0.11,1.13,0.11c0.82,0,1.46-0.15,1.92-0.44   c0.46-0.29,0.69-0.74,0.69-1.34c0-0.32-0.06-0.59-0.2-0.8c-0.13-0.22-0.33-0.41-0.59-0.57c-0.26-0.16-0.58-0.3-0.97-0.41   c-0.39-0.12-0.84-0.23-1.35-0.35c-0.54-0.12-1.01-0.26-1.42-0.39c-0.41-0.14-0.75-0.3-1.03-0.51c-0.28-0.2-0.49-0.45-0.63-0.73   c-0.14-0.29-0.21-0.64-0.21-1.05c0-0.47,0.09-0.9,0.27-1.27s0.43-0.68,0.76-0.93c0.33-0.25,0.72-0.43,1.16-0.56   c0.44-0.13,0.94-0.2,1.48-0.2c0.69,0,1.3,0.1,1.83,0.31c0.54,0.21,1.02,0.5,1.46,0.88L146.21,105.64z"/>
	<path class="st0" d="M158.7,105.64c-0.29-0.33-0.68-0.59-1.16-0.8s-1.03-0.3-1.65-0.3c-0.91,0-1.57,0.17-1.99,0.51   c-0.42,0.34-0.62,0.81-0.62,1.4c0,0.31,0.06,0.56,0.17,0.76c0.11,0.2,0.28,0.37,0.51,0.52c0.23,0.14,0.53,0.27,0.89,0.38   c0.36,0.11,0.79,0.21,1.28,0.32c0.55,0.12,1.05,0.25,1.49,0.39c0.44,0.15,0.81,0.33,1.12,0.54c0.31,0.22,0.55,0.48,0.71,0.79   c0.16,0.31,0.25,0.69,0.25,1.16c0,0.47-0.09,0.88-0.28,1.23c-0.18,0.35-0.44,0.64-0.77,0.87c-0.33,0.23-0.72,0.4-1.17,0.52   s-0.95,0.17-1.49,0.17c-1.59,0-2.97-0.5-4.13-1.49l0.51-0.83c0.18,0.19,0.4,0.38,0.66,0.55c0.26,0.17,0.54,0.33,0.85,0.46   c0.31,0.13,0.65,0.23,1.01,0.3c0.36,0.07,0.73,0.11,1.13,0.11c0.82,0,1.46-0.15,1.92-0.44c0.46-0.29,0.69-0.74,0.69-1.34   c0-0.32-0.06-0.59-0.2-0.8c-0.13-0.22-0.33-0.41-0.59-0.57c-0.26-0.16-0.58-0.3-0.97-0.41c-0.39-0.12-0.84-0.23-1.35-0.35   c-0.54-0.12-1.01-0.26-1.42-0.39c-0.41-0.14-0.75-0.3-1.03-0.51c-0.28-0.2-0.49-0.45-0.63-0.73c-0.14-0.29-0.21-0.64-0.21-1.05   c0-0.47,0.09-0.9,0.27-1.27c0.18-0.37,0.43-0.68,0.76-0.93c0.33-0.25,0.72-0.43,1.16-0.56c0.44-0.13,0.94-0.2,1.48-0.2   c0.69,0,1.3,0.1,1.83,0.31c0.54,0.21,1.02,0.5,1.46,0.88L158.7,105.64z"/>
	<path class="st0" d="M161.48,114v-10.29h1.01V114H161.48z"/>
	<path class="st0" d="M165,103.71l3.38,4.49l3.38-4.49h1.12l-3.96,5.22l3.84,5.07h-1.12l-3.26-4.35l-3.26,4.35h-1.15l3.84-5.07   l-3.96-5.22H165z"/>
	<path class="st0" d="M181.53,104.61h-3.67V114h-1.01v-9.39h-3.67v-0.9h8.35V104.61z"/>
	<path class="st0" d="M191.18,103.71V114h-1v-4.81h-6.1V114h-1.01v-10.29h1.01v4.58h6.1v-4.58H191.18z"/>
	<path class="st0" d="M201.11,115.88v-13.11h0.85v13.11H201.11z"/>
	<path class="st0" d="M211.12,109.26c0-0.49,0.09-0.95,0.28-1.38c0.19-0.43,0.45-0.8,0.78-1.12c0.33-0.32,0.71-0.57,1.16-0.75   c0.44-0.18,0.92-0.27,1.43-0.27c0.54,0,1.04,0.1,1.49,0.3c0.45,0.2,0.84,0.48,1.17,0.85c0.32,0.37,0.58,0.82,0.76,1.35   c0.18,0.54,0.27,1.14,0.27,1.8c0,1.04-0.09,1.95-0.27,2.73c-0.18,0.78-0.44,1.42-0.78,1.94c-0.33,0.52-0.73,0.9-1.2,1.15   c-0.47,0.25-0.98,0.38-1.54,0.38c-0.68,0-1.29-0.17-1.83-0.51c-0.55-0.34-0.96-0.81-1.24-1.41l0.64-0.58   c0.2,0.49,0.52,0.89,0.96,1.18c0.44,0.29,0.93,0.44,1.47,0.44c0.43,0,0.81-0.1,1.16-0.3c0.35-0.2,0.65-0.5,0.9-0.88   c0.25-0.38,0.44-0.85,0.58-1.41s0.21-1.19,0.22-1.91c-0.22,0.57-0.59,1.02-1.11,1.36c-0.52,0.34-1.1,0.51-1.76,0.51   c-0.49,0-0.95-0.09-1.38-0.27c-0.43-0.18-0.8-0.43-1.12-0.74c-0.32-0.31-0.57-0.68-0.75-1.11   C211.21,110.2,211.12,109.74,211.12,109.26z M214.76,106.59c-0.37,0-0.71,0.07-1.04,0.21c-0.32,0.14-0.61,0.33-0.85,0.57   c-0.25,0.24-0.44,0.52-0.59,0.85c-0.15,0.32-0.22,0.67-0.22,1.04c0,0.37,0.07,0.71,0.22,1.04c0.15,0.32,0.34,0.61,0.59,0.85   c0.25,0.24,0.53,0.43,0.85,0.57s0.67,0.21,1.04,0.21c0.37,0,0.72-0.07,1.04-0.21c0.33-0.14,0.61-0.33,0.85-0.57   c0.24-0.24,0.43-0.52,0.57-0.85c0.14-0.32,0.21-0.67,0.21-1.04c0-0.36-0.07-0.7-0.21-1.02c-0.14-0.32-0.33-0.61-0.58-0.85   s-0.53-0.44-0.86-0.58C215.47,106.66,215.13,106.59,214.76,106.59z"/>
	<path class="st0" d="M227.16,109.75c0,0.64-0.09,1.22-0.28,1.76c-0.18,0.54-0.44,1-0.76,1.39c-0.32,0.39-0.71,0.69-1.15,0.91   c-0.44,0.22-0.93,0.33-1.45,0.33c-0.52,0-1-0.11-1.45-0.33c-0.44-0.22-0.83-0.52-1.15-0.91c-0.32-0.39-0.58-0.85-0.76-1.39   c-0.18-0.54-0.28-1.12-0.28-1.76c0-0.64,0.09-1.22,0.28-1.76c0.18-0.54,0.44-1,0.76-1.39c0.32-0.39,0.71-0.7,1.15-0.92   c0.44-0.22,0.93-0.33,1.45-0.33c0.52,0,1,0.11,1.45,0.33c0.44,0.22,0.83,0.53,1.15,0.92c0.32,0.39,0.58,0.85,0.76,1.39   S227.16,109.11,227.16,109.75z M226.16,109.75c0-0.52-0.07-1-0.2-1.42c-0.13-0.43-0.31-0.79-0.54-1.09   c-0.23-0.3-0.51-0.54-0.83-0.71c-0.32-0.17-0.68-0.25-1.07-0.25c-0.4,0-0.76,0.08-1.08,0.25c-0.32,0.17-0.6,0.41-0.83,0.71   c-0.23,0.3-0.41,0.67-0.54,1.09c-0.13,0.42-0.2,0.9-0.2,1.42c0,0.52,0.06,1,0.2,1.42c0.13,0.43,0.31,0.79,0.54,1.09   c0.23,0.3,0.51,0.54,0.83,0.7c0.32,0.16,0.68,0.25,1.08,0.25c0.39,0,0.74-0.08,1.07-0.25c0.32-0.16,0.6-0.4,0.83-0.7   c0.23-0.3,0.41-0.67,0.54-1.09C226.1,110.75,226.16,110.27,226.16,109.75z"/>
	<path class="st0" d="M235.83,111.14c0,0.45-0.1,0.86-0.29,1.22s-0.45,0.67-0.78,0.93c-0.33,0.26-0.71,0.46-1.15,0.6   c-0.44,0.14-0.9,0.21-1.38,0.21c-0.51,0-0.98-0.08-1.42-0.24c-0.43-0.16-0.81-0.38-1.12-0.65c-0.31-0.28-0.56-0.6-0.73-0.96   c-0.17-0.37-0.26-0.76-0.26-1.17c0-0.33,0.06-0.63,0.18-0.91c0.12-0.28,0.28-0.53,0.47-0.75c0.19-0.22,0.41-0.41,0.66-0.56   s0.5-0.28,0.75-0.37c-0.23-0.1-0.45-0.21-0.65-0.35c-0.2-0.14-0.38-0.3-0.54-0.49c-0.15-0.18-0.28-0.39-0.37-0.61   c-0.09-0.22-0.14-0.46-0.14-0.71c0-0.42,0.1-0.8,0.29-1.12c0.19-0.32,0.44-0.6,0.75-0.82c0.3-0.22,0.65-0.39,1.03-0.51   c0.38-0.12,0.77-0.17,1.15-0.17c0.39,0,0.77,0.06,1.15,0.17c0.38,0.12,0.73,0.28,1.03,0.5c0.3,0.22,0.55,0.49,0.75,0.82   c0.19,0.33,0.29,0.7,0.29,1.12c0,0.25-0.05,0.49-0.14,0.71c-0.09,0.22-0.22,0.43-0.38,0.62c-0.16,0.19-0.34,0.35-0.55,0.49   c-0.21,0.14-0.43,0.26-0.66,0.35c0.28,0.1,0.55,0.23,0.8,0.4c0.25,0.17,0.47,0.36,0.66,0.59c0.19,0.22,0.34,0.47,0.45,0.75   C235.77,110.51,235.83,110.81,235.83,111.14z M234.83,111.07c0-0.35-0.08-0.65-0.23-0.92s-0.36-0.49-0.61-0.67   c-0.25-0.18-0.53-0.32-0.84-0.42s-0.61-0.15-0.91-0.15c-0.32,0-0.63,0.05-0.93,0.15c-0.3,0.1-0.57,0.25-0.81,0.44   c-0.24,0.19-0.43,0.42-0.58,0.69c-0.15,0.27-0.22,0.57-0.22,0.9c0,0.34,0.08,0.64,0.23,0.91c0.15,0.27,0.35,0.49,0.6,0.67   c0.25,0.18,0.52,0.32,0.83,0.42c0.3,0.1,0.61,0.15,0.92,0.15c0.31,0,0.62-0.05,0.92-0.15c0.3-0.1,0.58-0.25,0.82-0.44   c0.24-0.19,0.44-0.42,0.59-0.68C234.75,111.7,234.83,111.4,234.83,111.07z M230.03,106.38c0,0.28,0.07,0.53,0.2,0.75   c0.14,0.22,0.31,0.4,0.52,0.55c0.21,0.15,0.45,0.26,0.72,0.34c0.27,0.08,0.52,0.12,0.77,0.12c0.26,0,0.52-0.04,0.78-0.12   c0.26-0.08,0.5-0.19,0.72-0.35c0.22-0.15,0.39-0.34,0.53-0.56c0.14-0.22,0.2-0.47,0.2-0.75c0-0.27-0.06-0.51-0.19-0.73   c-0.13-0.22-0.29-0.4-0.5-0.55c-0.21-0.15-0.45-0.26-0.72-0.34c-0.27-0.08-0.55-0.12-0.84-0.12c-0.28,0-0.55,0.04-0.82,0.12   c-0.27,0.08-0.5,0.2-0.7,0.35c-0.2,0.15-0.37,0.34-0.49,0.56C230.1,105.86,230.03,106.11,230.03,106.38z"/>
	<path class="st0" d="M247.55,105.64c-0.29-0.33-0.68-0.59-1.16-0.8c-0.48-0.2-1.03-0.3-1.65-0.3c-0.91,0-1.57,0.17-1.98,0.51   c-0.42,0.34-0.62,0.81-0.62,1.4c0,0.31,0.06,0.56,0.17,0.76c0.11,0.2,0.28,0.37,0.51,0.52c0.23,0.14,0.53,0.27,0.89,0.38   c0.36,0.11,0.79,0.21,1.28,0.32c0.55,0.12,1.05,0.25,1.48,0.39c0.44,0.15,0.81,0.33,1.12,0.54c0.31,0.22,0.54,0.48,0.71,0.79   c0.16,0.31,0.25,0.69,0.25,1.16c0,0.47-0.09,0.88-0.28,1.23c-0.18,0.35-0.44,0.64-0.77,0.87c-0.33,0.23-0.72,0.4-1.17,0.52   s-0.95,0.17-1.49,0.17c-1.59,0-2.97-0.5-4.13-1.49l0.51-0.83c0.18,0.19,0.4,0.38,0.66,0.55c0.26,0.17,0.54,0.33,0.85,0.46   s0.65,0.23,1.01,0.3c0.36,0.07,0.73,0.11,1.13,0.11c0.82,0,1.46-0.15,1.92-0.44c0.46-0.29,0.69-0.74,0.69-1.34   c0-0.32-0.06-0.59-0.19-0.8c-0.13-0.22-0.33-0.41-0.59-0.57c-0.26-0.16-0.58-0.3-0.97-0.41c-0.39-0.12-0.84-0.23-1.35-0.35   c-0.54-0.12-1.01-0.26-1.42-0.39c-0.41-0.14-0.75-0.3-1.03-0.51c-0.28-0.2-0.49-0.45-0.63-0.73c-0.14-0.29-0.21-0.64-0.21-1.05   c0-0.47,0.09-0.9,0.27-1.27c0.18-0.37,0.43-0.68,0.76-0.93c0.33-0.25,0.71-0.43,1.16-0.56c0.44-0.13,0.94-0.2,1.48-0.2   c0.69,0,1.3,0.1,1.83,0.31c0.54,0.21,1.02,0.5,1.46,0.88L247.55,105.64z"/>
	<path class="st0" d="M254.03,114v-10.29h6.75v0.9h-5.74v3.78h4.84v0.84h-4.84V114H254.03z"/>
	<path class="st0" d="M262.56,114v-10.29h1.01V114H262.56z"/>
	<path class="st0" d="M266.16,114v-10.29h4.35c0.44,0,0.85,0.09,1.23,0.28c0.37,0.19,0.69,0.44,0.96,0.74   c0.27,0.3,0.48,0.65,0.63,1.04c0.15,0.39,0.23,0.78,0.23,1.17c0,0.38-0.06,0.74-0.17,1.08c-0.11,0.34-0.27,0.65-0.46,0.93   c-0.2,0.27-0.44,0.51-0.72,0.7c-0.28,0.19-0.59,0.32-0.94,0.38l2.52,3.97h-1.14l-2.42-3.8h-3.04v3.8H266.16z M267.17,109.3h3.36   c0.3,0,0.57-0.06,0.82-0.2s0.46-0.31,0.63-0.53c0.17-0.22,0.31-0.47,0.41-0.75c0.1-0.28,0.15-0.58,0.15-0.88s-0.06-0.61-0.17-0.89   c-0.11-0.28-0.26-0.53-0.45-0.75c-0.19-0.21-0.41-0.38-0.67-0.51c-0.26-0.12-0.52-0.19-0.8-0.19h-3.27V109.3z"/>
	<path class="st0" d="M281.63,105.64c-0.29-0.33-0.68-0.59-1.16-0.8c-0.48-0.2-1.03-0.3-1.65-0.3c-0.91,0-1.57,0.17-1.99,0.51   c-0.42,0.34-0.62,0.81-0.62,1.4c0,0.31,0.06,0.56,0.17,0.76c0.11,0.2,0.28,0.37,0.51,0.52c0.23,0.14,0.53,0.27,0.89,0.38   s0.79,0.21,1.28,0.32c0.55,0.12,1.05,0.25,1.49,0.39c0.44,0.15,0.81,0.33,1.12,0.54s0.55,0.48,0.71,0.79   c0.17,0.31,0.25,0.69,0.25,1.16c0,0.47-0.09,0.88-0.27,1.23c-0.18,0.35-0.44,0.64-0.77,0.87c-0.33,0.23-0.72,0.4-1.17,0.52   s-0.95,0.17-1.49,0.17c-1.59,0-2.97-0.5-4.13-1.49l0.51-0.83c0.18,0.19,0.4,0.38,0.66,0.55c0.26,0.17,0.54,0.33,0.85,0.46   c0.31,0.13,0.65,0.23,1.01,0.3c0.36,0.07,0.73,0.11,1.13,0.11c0.82,0,1.46-0.15,1.92-0.44c0.46-0.29,0.69-0.74,0.69-1.34   c0-0.32-0.06-0.59-0.2-0.8c-0.13-0.22-0.33-0.41-0.59-0.57c-0.26-0.16-0.58-0.3-0.97-0.41c-0.39-0.12-0.84-0.23-1.35-0.35   c-0.54-0.12-1.01-0.26-1.42-0.39c-0.41-0.14-0.75-0.3-1.03-0.51c-0.28-0.2-0.49-0.45-0.63-0.73c-0.14-0.29-0.21-0.64-0.21-1.05   c0-0.47,0.09-0.9,0.27-1.27c0.18-0.37,0.43-0.68,0.76-0.93c0.33-0.25,0.72-0.43,1.16-0.56c0.44-0.13,0.94-0.2,1.48-0.2   c0.69,0,1.3,0.1,1.83,0.31c0.54,0.21,1.02,0.5,1.46,0.88L281.63,105.64z"/>
	<path class="st0" d="M291.65,104.61h-3.67V114h-1.01v-9.39h-3.67v-0.9h8.35V104.61z"/>
	<path class="st0" d="M300.12,115.88v-13.11h0.85v13.11H300.12z"/>
	<path class="st0" d="M315.5,113.1v0.9h-4.91v-0.9h2.06v-6.2c-0.08,0.12-0.21,0.24-0.4,0.38c-0.19,0.13-0.4,0.26-0.62,0.38   c-0.23,0.12-0.46,0.21-0.7,0.29c-0.24,0.08-0.45,0.12-0.64,0.12v-0.96c0.22,0,0.47-0.06,0.73-0.19c0.27-0.12,0.52-0.27,0.75-0.43   c0.24-0.16,0.44-0.32,0.6-0.46c0.17-0.15,0.26-0.24,0.28-0.29h1.01v7.37H315.5z"/>
	<path class="st0" d="M323.89,109.75c0,0.64-0.09,1.22-0.28,1.76c-0.18,0.54-0.44,1-0.76,1.39c-0.32,0.39-0.71,0.69-1.15,0.91   c-0.44,0.22-0.93,0.33-1.45,0.33c-0.52,0-1-0.11-1.45-0.33c-0.44-0.22-0.83-0.52-1.15-0.91c-0.32-0.39-0.58-0.85-0.76-1.39   c-0.18-0.54-0.28-1.12-0.28-1.76c0-0.64,0.09-1.22,0.28-1.76c0.18-0.54,0.44-1,0.76-1.39c0.32-0.39,0.71-0.7,1.15-0.92   c0.44-0.22,0.93-0.33,1.45-0.33c0.52,0,1,0.11,1.45,0.33c0.44,0.22,0.83,0.53,1.15,0.92c0.32,0.39,0.58,0.85,0.76,1.39   S323.89,109.11,323.89,109.75z M322.89,109.75c0-0.52-0.07-1-0.2-1.42c-0.13-0.43-0.31-0.79-0.54-1.09   c-0.23-0.3-0.51-0.54-0.83-0.71c-0.32-0.17-0.68-0.25-1.07-0.25c-0.4,0-0.76,0.08-1.08,0.25c-0.32,0.17-0.6,0.41-0.83,0.71   c-0.23,0.3-0.41,0.67-0.54,1.09c-0.13,0.42-0.2,0.9-0.2,1.42c0,0.52,0.06,1,0.2,1.42c0.13,0.43,0.31,0.79,0.54,1.09   c0.23,0.3,0.51,0.54,0.83,0.7c0.32,0.16,0.68,0.25,1.08,0.25c0.39,0,0.74-0.08,1.07-0.25c0.32-0.16,0.6-0.4,0.83-0.7   c0.23-0.3,0.41-0.67,0.54-1.09C322.82,110.75,322.89,110.27,322.89,109.75z"/>
	<path class="st0" d="M332.75,109.75c0,0.64-0.09,1.22-0.28,1.76c-0.18,0.54-0.44,1-0.76,1.39c-0.32,0.39-0.71,0.69-1.15,0.91   c-0.44,0.22-0.93,0.33-1.45,0.33c-0.52,0-1-0.11-1.45-0.33c-0.44-0.22-0.83-0.52-1.15-0.91c-0.32-0.39-0.58-0.85-0.76-1.39   c-0.18-0.54-0.28-1.12-0.28-1.76c0-0.64,0.09-1.22,0.28-1.76c0.18-0.54,0.44-1,0.76-1.39c0.32-0.39,0.71-0.7,1.15-0.92   c0.44-0.22,0.93-0.33,1.45-0.33c0.52,0,1,0.11,1.45,0.33c0.44,0.22,0.83,0.53,1.15,0.92c0.32,0.39,0.58,0.85,0.76,1.39   S332.75,109.11,332.75,109.75z M331.75,109.75c0-0.52-0.07-1-0.2-1.42c-0.13-0.43-0.31-0.79-0.54-1.09   c-0.23-0.3-0.51-0.54-0.83-0.71c-0.32-0.17-0.68-0.25-1.07-0.25c-0.4,0-0.76,0.08-1.08,0.25c-0.32,0.17-0.6,0.41-0.83,0.71   c-0.23,0.3-0.41,0.67-0.54,1.09c-0.13,0.42-0.2,0.9-0.2,1.42c0,0.52,0.06,1,0.2,1.42c0.13,0.43,0.31,0.79,0.54,1.09   c0.23,0.3,0.51,0.54,0.83,0.7c0.32,0.16,0.68,0.25,1.08,0.25c0.39,0,0.74-0.08,1.07-0.25c0.32-0.16,0.6-0.4,0.83-0.7   c0.23-0.3,0.41-0.67,0.54-1.09C331.69,110.75,331.75,110.27,331.75,109.75z"/>
	<path class="st0" d="M341.42,111.14c0,0.45-0.1,0.86-0.29,1.22c-0.19,0.36-0.46,0.67-0.78,0.93c-0.33,0.26-0.71,0.46-1.15,0.6   c-0.44,0.14-0.9,0.21-1.38,0.21c-0.51,0-0.99-0.08-1.42-0.24c-0.43-0.16-0.81-0.38-1.12-0.65c-0.31-0.28-0.56-0.6-0.73-0.96   c-0.17-0.37-0.26-0.76-0.26-1.17c0-0.33,0.06-0.63,0.18-0.91c0.12-0.28,0.28-0.53,0.47-0.75c0.19-0.22,0.41-0.41,0.66-0.56   c0.25-0.16,0.5-0.28,0.75-0.37c-0.23-0.1-0.45-0.21-0.65-0.35c-0.2-0.14-0.38-0.3-0.54-0.49c-0.15-0.18-0.28-0.39-0.37-0.61   c-0.09-0.22-0.14-0.46-0.14-0.71c0-0.42,0.1-0.8,0.29-1.12c0.19-0.32,0.44-0.6,0.75-0.82c0.3-0.22,0.65-0.39,1.03-0.51   c0.38-0.12,0.77-0.17,1.15-0.17c0.39,0,0.77,0.06,1.15,0.17c0.38,0.12,0.73,0.28,1.03,0.5c0.3,0.22,0.55,0.49,0.75,0.82   c0.19,0.33,0.29,0.7,0.29,1.12c0,0.25-0.05,0.49-0.14,0.71c-0.09,0.22-0.22,0.43-0.38,0.62c-0.16,0.19-0.34,0.35-0.55,0.49   c-0.21,0.14-0.43,0.26-0.66,0.35c0.28,0.1,0.55,0.23,0.8,0.4c0.25,0.17,0.47,0.36,0.66,0.59c0.19,0.22,0.34,0.47,0.45,0.75   C341.36,110.51,341.42,110.81,341.42,111.14z M340.42,111.07c0-0.35-0.08-0.65-0.23-0.92s-0.36-0.49-0.61-0.67   c-0.25-0.18-0.53-0.32-0.84-0.42s-0.61-0.15-0.91-0.15c-0.32,0-0.63,0.05-0.93,0.15c-0.3,0.1-0.57,0.25-0.81,0.44   c-0.24,0.19-0.43,0.42-0.58,0.69c-0.15,0.27-0.22,0.57-0.22,0.9c0,0.34,0.08,0.64,0.23,0.91c0.15,0.27,0.35,0.49,0.6,0.67   c0.25,0.18,0.52,0.32,0.83,0.42c0.3,0.1,0.61,0.15,0.92,0.15s0.62-0.05,0.92-0.15c0.3-0.1,0.58-0.25,0.82-0.44   c0.24-0.19,0.44-0.42,0.59-0.68S340.42,111.4,340.42,111.07z M335.62,106.38c0,0.28,0.07,0.53,0.2,0.75   c0.14,0.22,0.31,0.4,0.52,0.55c0.21,0.15,0.45,0.26,0.72,0.34c0.27,0.08,0.52,0.12,0.77,0.12c0.26,0,0.52-0.04,0.78-0.12   c0.26-0.08,0.5-0.19,0.72-0.35c0.22-0.15,0.39-0.34,0.53-0.56c0.13-0.22,0.2-0.47,0.2-0.75c0-0.27-0.06-0.51-0.19-0.73   c-0.13-0.22-0.29-0.4-0.5-0.55s-0.45-0.26-0.72-0.34c-0.27-0.08-0.55-0.12-0.84-0.12c-0.28,0-0.55,0.04-0.82,0.12   c-0.27,0.08-0.5,0.2-0.7,0.35c-0.2,0.15-0.37,0.34-0.49,0.56C335.68,105.86,335.62,106.11,335.62,106.38z"/>
	<path class="st0" d="M353.14,105.64c-0.29-0.33-0.68-0.59-1.16-0.8s-1.03-0.3-1.65-0.3c-0.91,0-1.57,0.17-1.98,0.51   c-0.42,0.34-0.62,0.81-0.62,1.4c0,0.31,0.06,0.56,0.17,0.76c0.11,0.2,0.28,0.37,0.51,0.52c0.23,0.14,0.53,0.27,0.89,0.38   c0.36,0.11,0.79,0.21,1.28,0.32c0.55,0.12,1.05,0.25,1.49,0.39c0.44,0.15,0.81,0.33,1.12,0.54s0.55,0.48,0.71,0.79   c0.16,0.31,0.25,0.69,0.25,1.16c0,0.47-0.09,0.88-0.27,1.23c-0.18,0.35-0.44,0.64-0.77,0.87c-0.33,0.23-0.72,0.4-1.17,0.52   s-0.95,0.17-1.49,0.17c-1.59,0-2.97-0.5-4.13-1.49l0.51-0.83c0.18,0.19,0.4,0.38,0.66,0.55c0.26,0.17,0.54,0.33,0.85,0.46   c0.31,0.13,0.65,0.23,1.01,0.3c0.36,0.07,0.73,0.11,1.13,0.11c0.82,0,1.46-0.15,1.92-0.44c0.46-0.29,0.69-0.74,0.69-1.34   c0-0.32-0.07-0.59-0.2-0.8c-0.13-0.22-0.33-0.41-0.59-0.57c-0.26-0.16-0.58-0.3-0.97-0.41c-0.39-0.12-0.84-0.23-1.35-0.35   c-0.54-0.12-1.01-0.26-1.42-0.39c-0.41-0.14-0.75-0.3-1.03-0.51c-0.28-0.2-0.49-0.45-0.63-0.73c-0.14-0.29-0.21-0.64-0.21-1.05   c0-0.47,0.09-0.9,0.27-1.27c0.18-0.37,0.43-0.68,0.76-0.93c0.33-0.25,0.71-0.43,1.16-0.56c0.44-0.13,0.94-0.2,1.48-0.2   c0.69,0,1.3,0.1,1.83,0.31c0.54,0.21,1.02,0.5,1.46,0.88L353.14,105.64z"/>
	<path class="st0" d="M359.62,114v-10.29h6.75v0.9h-5.74v3.78h4.84v0.84h-4.84V114H359.62z"/>
	<path class="st0" d="M372.07,114.07c-0.71,0-1.37-0.15-1.96-0.44s-1.1-0.69-1.53-1.17c-0.43-0.49-0.75-1.05-0.99-1.67   c-0.23-0.63-0.35-1.27-0.35-1.93c0-0.69,0.12-1.34,0.37-1.97c0.25-0.63,0.59-1.18,1.02-1.67c0.43-0.48,0.95-0.87,1.54-1.15   c0.59-0.29,1.23-0.43,1.91-0.43c0.71,0,1.37,0.15,1.96,0.46c0.59,0.3,1.1,0.7,1.52,1.2c0.42,0.49,0.75,1.05,0.98,1.67   c0.23,0.62,0.35,1.26,0.35,1.91c0,0.69-0.12,1.34-0.37,1.97c-0.25,0.63-0.58,1.18-1.02,1.66c-0.43,0.48-0.94,0.86-1.53,1.15   C373.39,113.93,372.75,114.07,372.07,114.07z M368.25,108.85c0,0.56,0.09,1.1,0.28,1.62c0.18,0.52,0.44,0.98,0.78,1.38   c0.34,0.4,0.74,0.72,1.2,0.96c0.46,0.24,0.98,0.36,1.55,0.36c0.58,0,1.11-0.13,1.58-0.38c0.47-0.25,0.88-0.58,1.2-0.99   c0.33-0.41,0.58-0.86,0.76-1.38c0.18-0.51,0.27-1.03,0.27-1.56c0-0.56-0.09-1.1-0.28-1.62c-0.19-0.52-0.45-0.97-0.79-1.37   c-0.34-0.4-0.74-0.71-1.2-0.95c-0.46-0.24-0.98-0.35-1.54-0.35c-0.58,0-1.11,0.12-1.58,0.37c-0.47,0.25-0.88,0.57-1.2,0.98   c-0.33,0.41-0.58,0.86-0.76,1.38C368.34,107.8,368.25,108.32,368.25,108.85z"/>
	<path class="st0" d="M382.98,113.16c0.65,0,1.19-0.12,1.62-0.37c0.43-0.25,0.77-0.57,1.03-0.97c0.26-0.4,0.44-0.86,0.54-1.37   s0.15-1.03,0.15-1.55v-5.19h1.01v5.19c0,0.7-0.08,1.35-0.23,1.98c-0.15,0.62-0.4,1.17-0.75,1.65c-0.34,0.47-0.79,0.85-1.34,1.13   c-0.55,0.28-1.22,0.42-2.01,0.42c-0.81,0-1.5-0.15-2.05-0.44s-1-0.68-1.34-1.17c-0.34-0.48-0.58-1.03-0.72-1.65   s-0.22-1.26-0.22-1.91v-5.19h1v5.19c0,0.54,0.05,1.07,0.16,1.58c0.11,0.51,0.29,0.97,0.54,1.36c0.26,0.4,0.6,0.72,1.02,0.96   C381.81,113.04,382.34,113.16,382.98,113.16z"/>
	<path class="st0" d="M389.74,114v-10.29h4.35c0.44,0,0.85,0.09,1.22,0.28c0.37,0.19,0.69,0.44,0.96,0.74   c0.27,0.3,0.48,0.65,0.63,1.04c0.15,0.39,0.23,0.78,0.23,1.17c0,0.38-0.06,0.74-0.17,1.08c-0.11,0.34-0.27,0.65-0.46,0.93   c-0.2,0.27-0.44,0.51-0.72,0.7c-0.28,0.19-0.59,0.32-0.94,0.38l2.52,3.97h-1.15l-2.42-3.8h-3.04v3.8H389.74z M390.76,109.3h3.36   c0.3,0,0.57-0.06,0.82-0.2s0.46-0.31,0.63-0.53c0.17-0.22,0.31-0.47,0.41-0.75c0.1-0.28,0.15-0.58,0.15-0.88s-0.06-0.61-0.17-0.89   c-0.11-0.28-0.26-0.53-0.45-0.75c-0.19-0.21-0.41-0.38-0.67-0.51c-0.26-0.12-0.52-0.19-0.8-0.19h-3.27V109.3z"/>
	<path class="st0" d="M406.35,104.61h-3.67V114h-1.01v-9.39H398v-0.9h8.35V104.61z"/>
	<path class="st0" d="M416,103.71V114h-1v-4.81h-6.1V114h-1.01v-10.29h1.01v4.58h6.1v-4.58H416z"/>
</g>
</svg>