<?xml version="1.0" encoding="UTF-8"?>
<!-- Generator: Adobe Illustrator 27.7.0, SVG Export Plug-In . SVG Version: 6.00 Build 0)  -->
<svg xmlns="http://www.w3.org/2000/svg" xmlns:xlink="http://www.w3.org/1999/xlink" version="1.1" id="Layer_1" x="0px" y="0px" width="221px" height="156px" viewBox="0 0 221 156" style="enable-background:new 0 0 221 156;" xml:space="preserve">
<style type="text/css">
	.st0{fill:#66C9BA;}
	.st1{fill:#185A7D;}
</style>
<path class="st0" d="M125.2,19.4l-10,8c1.4,1,3.1,2.5,4.9,3.9c3.1-2.4,5.8-4.6,7-5.6c1.2,1,4.1,3.2,7,5.6c1.9-1.5,3.6-2.9,4.9-3.9  c-4.6-3.7-10-8-10-8C127.9,18.5,126.2,18.5,125.2,19.4 M165.5,19.4c-1.2-0.8-2.7-0.8-3.7,0c0,0-5.3,4.2-10,8c1.4,1,3.1,2.5,4.9,3.9  c3.1-2.4,5.8-4.6,7-5.6c1.2,1,4.1,3.2,7,5.6c1.9-1.4,3.6-2.9,4.9-3.9L165.5,19.4z"></path>
<path class="st0" d="M137.2,139.5h12.7v-6.1h-17.7C133.8,136,135.3,138,137.2,139.5"></path>
<g>
	<path class="st1" d="M23.6,71.5c3.4,0.5,6.3,1.4,8.5,2.5c3.6,2,5.3,4.9,5.3,9c0,7.8-5.9,17.3-13.7,20.9V71.5z M47.7,134.9   c-9.2,0-12.4-16.8-13.9-30c6.3-5.9,10.4-14.4,10.4-22.1c0-7-3.6-18.7-27.2-18.7V65h-0.2v73.3h6.8v-27.2c1.4-0.5,2.7-1,3.9-1.7   c0.8,5.9,2,12.7,4.2,18.3c3.6,9.2,8.8,13.9,16,13.9h23.9v-6.8H47.7z"></path>
	<path class="st1" d="M205.5,65h-28v6.8h10.7v66.7h6.8V71.8h10.5V65z"></path>
	<path class="st1" d="M47.4,65v65.8h24.3v-6.8H54.3V98.5H65v-6.8H54.3V71.8h23.8v66.5h6.8V71.8h13.2V65L47.4,65z"></path>
	<path class="st1" d="M155.1,71.8V65h-24.3v66h19.9v-6.8h-13.1V98.5h11v-6.8h-11V71.8H155.1z"></path>
	<path class="st1" d="M172.1,113.7c-1,0.2-1.7-0.2-3.1-0.7c-1.5-0.7-3.6-1.4-6.4-1c-0.2,0-0.3,0-0.5,0V97.6c0-0.7,0.2-10.7,5.6-23.4   c5.4,12.7,5.6,22.7,5.6,23.4v0.2v15.6C173,113.6,172.6,113.7,172.1,113.7 M170.7,65h-5.9c-9.3,17.3-9.3,31.7-9.3,32.9v40.6h6.8   v-19.3c0.3-0.2,0.8-0.2,1.4-0.3c1-0.2,1.9,0.2,3.1,0.7c1.5,0.7,3.6,1.4,6.3,1h0.3v17.8h6.8V97.8C180.1,96.8,180.1,82.2,170.7,65"></path>
	<path class="st1" d="M107.4,71.3c6.8,0.7,13.7,2.7,13.7,8.3c0,5.4-5.6,13.1-13.7,16L107.4,71.3z M140,145.5   c-7.5,0-12.9-5.3-16.8-16c-3.6-9.8-5.1-21.9-6.1-30.9v-0.5c6.6-4.8,10.9-12,10.9-18.5c0-5.8-3.6-15.4-27.2-15.4V65h-0.2v73.3h6.8   v-35.6c1-0.3,2-0.7,3.1-1c2.2,18.8,6.8,50.6,29.4,50.6h27.7v-6.8H140z"></path>
	<path class="st1" d="M83.2,20.9v-6.1H65v46h6.1h12v-6.1h-12v-16h8.5v-6.1h-8.5V20.9L83.2,20.9z M15.5,20.9h8.1v39.9h6.1V20.9h8.1   v-6.1H15.5L15.5,20.9z M55.2,30.9c-0.2,0-0.3,0-0.7,0.2c-1,0.2-1.7-0.2-2.5-0.3c-1.2-0.3-2.9-0.8-4.9-0.7h-0.2V15h-6.1v46h6.1V36.2   c0.2,0,0.5,0,0.7-0.2c1-0.2,1.7,0.2,2.7,0.3c1.2,0.3,2.9,0.8,4.9,0.7v23.8h6.1V15h-6.1V30.9z"></path>
	<path class="st1" d="M212.3,3.8H8.5c-1.9,0-3.4,1.5-3.4,3.4v39.2c0,1.9,1.5,3.4,3.4,3.4h12.6V43h-9.2V10.5h197V43h-7.6l-17.1-13.6   c-1.2-0.8-2.7-0.8-3.7,0c0,0-13.4,10.5-16.5,13.1c-3.1-2.4-16.5-13.1-16.5-13.1c-1.2-0.8-2.7-0.8-3.7,0c0,0-13.4,10.5-16.5,13.1   c-3.1-2.4-16.5-13.1-16.5-13.1c-1.2-0.8-2.7-0.8-3.7,0L88.8,43.8l3.7,4.8c0,0,13.4-10.5,16.5-13.1c3.1,2.4,16.5,13.1,16.5,13.1   c1.2,0.8,2.7,0.8,3.7,0c0,0,13.4-10.5,16.5-13.1c3.1,2.4,16.5,13.1,16.5,13.1c1.2,0.8,2.7,0.8,3.7,0c0,0,13.4-10.5,16.5-13.1   c3.1,2.4,17.8,14.1,17.8,14.1h12.4c1.9,0,3.4-1.5,3.4-3.4v-39C215.7,5.3,214.2,3.8,212.3,3.8"></path>
	<path class="st1" d="M32.1,54.2H38v6.8h-5.9V54.2z"></path>
	<path class="st1" d="M121.4,145.5H11.9V60.9h9.2v-6.8H8.5c-1.9,0-3.4,1.5-3.4,3.4v91.3c0,1.9,1.5,3.4,3.4,3.4h120.8   C126.5,150.7,123.7,148.3,121.4,145.5 M212.3,54.2H85.7v6.8h123.2v84.5h-38.9v6.8h42.1c1.9,0,3.4-1.5,3.4-3.4V57.5   C215.7,55.7,214.2,54.2,212.3,54.2"></path>
</g>
</svg>
